<svg xmlns="http://www.w3.org/2000/svg" width="800" height="739" style="shape-rendering:geometricPrecision;text-rendering:geometricPrecision;image-rendering:optimizeQuality;fill-rule:evenodd;clip-rule:evenodd"><path style="opacity:.999" fill="#4dafe3" d="M637.5 73.5c-.032 2.119.968 3.452 3 4a22.587 22.587 0 0 0 4 8c-2.248 1.725-1.748 3.058 1.5 4 1.505 1.798 1.672 3.632.5 5.5 1.673 2.858 3.339 5.691 5 8.5.342.838 1.008 1.172 2 1a403.218 403.218 0 0 1 11.5 24c.495 1.973.662 3.973.5 6 1.322-.17 2.489.163 3.5 1a12.154 12.154 0 0 0 .5 7c.233 1.562.9 2.895 2 4 .321 1.548 1.321 2.215 3 2a8.43 8.43 0 0 0 .5 4l1-1a14.325 14.325 0 0 0 2.5 5.5c-.07.765-.403 1.265-1 1.5-1.238-.31-1.238-.81 0-1.5a734.486 734.486 0 0 0-16-5.5 10.756 10.756 0 0 1-3 2.5c1.333 1 1.333 2 0 3l-7 1a9.454 9.454 0 0 0-1.5 2.5c-.368-1.41-1.201-2.41-2.5-3-2.032 1.319-4.032 1.319-6 0a9440.462 9440.462 0 0 1-10-23 55.752 55.752 0 0 0-6-6.5c-3.455-9.923-8.122-19.09-14-27.5a220.347 220.347 0 0 0-17-6v3c-8.625-.011-16.625 2.156-24 6.5-7.708 1.071-15.041 3.238-22 6.5-1.829-.788-3.496-.288-5 1.5-4.963.565-9.63 1.731-14 3.5v3a16.873 16.873 0 0 0-8 1 3026.558 3026.558 0 0 1-34 12.5 18.453 18.453 0 0 1-6 .5v3c-3.762.213-7.096 1.546-10 4-3.289-1.763-5.622-.929-7 2.5-5.305.115-10.305 1.282-15 3.5.12 2.705-.88 3.372-3 2a719.223 719.223 0 0 0-17.5 8c-2.078-1.443-2.911-.776-2.5 2-3.802-.62-7.135.214-10 2.5a52.141 52.141 0 0 0-10 1.5 187.655 187.655 0 0 1-10 4.5 6.547 6.547 0 0 1-3 3 414.963 414.963 0 0 1-33 11c-.603 2.071-1.936 3.238-4 3.5-.235-.597-.735-.93-1.5-1-2.576.957-4.576 2.624-6 5a3.647 3.647 0 0 0-1.5-1 31.71 31.71 0 0 1-6 2 385.937 385.937 0 0 0-46 18 64.452 64.452 0 0 1-13 3v3c-1.643-.02-2.976.647-4 2l-2-1a482.532 482.532 0 0 1-19 9 12.906 12.906 0 0 0-4-1 55.784 55.784 0 0 1-9.5 5 3.647 3.647 0 0 0-1.5-1l-7 5.5c-4.674.114-9.007 1.28-13 3.5l-2-1a224.804 224.804 0 0 1-19 7 35.478 35.478 0 0 0-6.5 4c-2.401-1.102-4.901-1.269-7.5-.5-2.675 1.861-5.675 2.861-9 3-6.672 4.584-14.172 7.418-22.5 8.5a274.262 274.262 0 0 0-4 4 3.647 3.647 0 0 0-1.5-1 89.65 89.65 0 0 0-12 5.5 30.465 30.465 0 0 1-9 1.5c-.162 2.324-1.328 3.991-3.5 5a3.647 3.647 0 0 0-1.5-1c-3.527 2.887-7.527 4.887-12 6-3.252 3.318-7.252 5.318-12 6a101.549 101.549 0 0 1-16 13.5 4.934 4.934 0 0 1-3 .5 8.435 8.435 0 0 1-.5 4c-1.852 1.195-3.019 2.862-3.5 5a63.265 63.265 0 0 0-5 7.5c.03 3.287.03 6.62 0 10a120.806 120.806 0 0 0 6 19.5 11.47 11.47 0 0 0-1 2.5c1.677 2.547 2.344 5.38 2 8.5h3a207.136 207.136 0 0 0 5 22c1.624-.14 2.79.527 3.5 2 .497 2.646.664 5.313.5 8-1.618-2.671-2.285-5.671-2-9-4.481.786-5.481 2.953-3 6.5a22.737 22.737 0 0 1-2 5 40.911 40.911 0 0 1-9 .5c-.178-3.602-1.178-3.602-3 0 2.438 2.156 2.605 4.489.5 7-2.667 1.333-4.667 3.333-6 6l-2-2c.207 2.251.374 4.585.5 7-4.722-3.628-6.055-8.295-4-14-.605-1.981-1.605-2.315-3-1-1.3-1.384-1.3-2.884 0-4.5-2.404-.508-3.07-1.675-2-3.5a1336.572 1336.572 0 0 0-13-39c.067-1.459-.266-2.792-1-4a103.585 103.585 0 0 1-8-21 9.107 9.107 0 0 0 1-5h-3c-.35-3.907.15-7.907 1.5-12 2.276-1.807 2.443-3.307.5-4.5 3.676-6.887 8.176-13.053 13.5-18.5 1.8-1.817 3.966-2.984 6.5-3.5-.958-1.147-.625-2.147 1-3a76.575 76.575 0 0 1 12-9c5.142-2.649 10.142-4.815 15-6.5 1.679.215 2.679-.452 3-2 0-.667.333-1 1-1 .75 1.073 1.75 1.24 3 .5-.556-.383-.89-.883-1-1.5.771-2.273 2.104-2.606 4-1a32.743 32.743 0 0 1 8-3 5.727 5.727 0 0 0 3-1c1.208-.734 2.541-1.067 4-1-.146-2.442.687-3.109 2.5-2a18.473 18.473 0 0 1 3.5-2c2.256 1.597 3.59.931 4-2 .755-1.966 1.921-2.3 3.5-1 2.538-2.375 5.371-3.042 8.5-2 1.006-.438 1.006-1.104 0-2 3.745-.58 6.912-2.247 9.5-5a7.248 7.248 0 0 0 2.5 2c2.842-2.126 6.009-3.793 9.5-5 2.078 1.02 3.745.353 5-2 1.893-.827 4.059-.827 6.5 0 1.006-.438 1.006-1.104 0-2 2.286-1.5 4.619-1.833 7-1a185.977 185.977 0 0 1 3-2c1.291.237 2.291-.096 3-1 5.286-1.38 11.286-2.714 18-4v-3c1.322-.17 2.489.163 3.5 1 3.837-1.117 7.337-2.784 10.5-5 4.535-.692 8.869-1.692 13-3 1.983.343 3.317-.324 4-2 .283-.789.783-1.456 1.5-2h7c.368-1.41 1.201-2.41 2.5-3a41.03 41.03 0 0 0 5.5 0c1.699-3.24 3.699-3.907 6-2 1.098-.884 1.598-1.884 1.5-3a7.248 7.248 0 0 1 2.5 2c4.577-3.871 9.743-6.538 15.5-8a196.021 196.021 0 0 0 13-7 4.457 4.457 0 0 1 1.5 2c.671-.752 1.504-1.086 2.5-1a6.547 6.547 0 0 0 3-3c4.25-1.952 9.416-3.952 15.5-6 .414.457.914.791 1.5 1 1.4-1.896 3.233-3.229 5.5-4a3.943 3.943 0 0 1 2 1 9.454 9.454 0 0 1 1.5-2.5 74.639 74.639 0 0 1 14-5c2.795-1.139 5.295-2.639 7.5-4.5 1.316 2.528 2.483 2.528 3.5 0 1.189-.929 2.522-1.262 4-1 .702.616 1.702.616 3 0 1.951-.782 3.451-2.116 4.5-4 .383.556.883.889 1.5 1 1.258.516 2.258-.15 3-2a218.916 218.916 0 0 1 10-3c1.759.761 3.426.428 5-1 5.108-4.38 11.108-6.88 18-7.5a16.473 16.473 0 0 0 5.5-3.5l1 1c1.143-3.415 2.81-3.749 5-1l3.5-3.5a688.513 688.513 0 0 1 19-7.5c1.135-.603 2.135-.936 3-1a37 37 0 0 0 7-4 5.576 5.576 0 0 0 3 1c.992.172 1.658-.162 2-1 1.574-.437 2.741-1.437 3.5-3l1 1c2.269-1.769 4.602-2.435 7-2a38.312 38.312 0 0 0 9.5-6l2 1c2.397-2.742 5.23-3.742 8.5-3a31.152 31.152 0 0 1 5.5-4c1.937 1.826 3.937 1.993 6 .5-.556-.383-.889-.883-1-1.5a300.045 300.045 0 0 1 25-7v-3c1.322-.17 2.489.163 3.5 1 1.788-3.096 4.288-3.763 7.5-2v-3c2.568-.95 5.068-.95 7.5 0a9.457 9.457 0 0 1 1.5-2.5c2.28-.212 4.28-1.045 6-2.5 1.465 1.109 2.465.609 3-1.5.949-.617 1.782-.45 2.5.5.928-1.835 2.094-2.168 3.5-1a30.68 30.68 0 0 1 6.5-4c3.034-.728 5.867-.728 8.5 0 1.196-.346 1.196-.846 0-1.5 2.28-.703 4.28-1.87 6-3.5.586.21 1.086.543 1.5 1 1.856-2.167 4.023-2.834 6.5-2 .798-.457 1.131-1.124 1-2 2.739.723 5.406.39 8-1a10.51 10.51 0 0 0 3-2.5c3.089-.147 5.922-.98 8.5-2.5 2.173.629 4.173-.038 6-2 1.245-.038 2.578.295 4 1 7.047-2.32 14.214-4.653 21.5-7 8.564 2.913 14.897 8.246 19 16Z"/><path style="opacity:.025" fill="#1b130c" d="M567.5 71.5c2.448-.973 5.115-1.306 8-1-2.594 1.39-5.261 1.723-8 1Z"/><path style="opacity:.026" fill="#0b0200" d="M637.5 73.5a8.944 8.944 0 0 1 3 4c-2.032-.548-3.032-1.881-3-4Z"/><path style="opacity:1" fill="#82ccf2" d="M641.5 157.5c-1.414 2.098-.748 3.098 2 3-.161 3.028.506 5.861 2 8.5a108.196 108.196 0 0 0 9 15c-1.017 1.049-1.184 2.216-.5 3.5 2.199 3.221 4.032 6.721 5.5 10.5a3.943 3.943 0 0 1-1 2c1.5.833 2.667 2 3.5 3.5a69.72 69.72 0 0 1 3 12c2.509 2.326 4.342 5.159 5.5 8.5 2.23 11.088 6.73 20.921 13.5 29.5.32 3.04.32 6.04 0 9 3.812 1.662 5.478 4.662 5 9a88.557 88.557 0 0 0 7.5 13.5 11.456 11.456 0 0 1-1 2.5 481.202 481.202 0 0 1 9 23l-1 2 4 2c-.92 2.286-.92 4.619 0 7 1.322-.17 2.489.163 3.5 1 .378 6.308 1.711 12.308 4 18 .71 1.473 1.876 2.14 3.5 2a271.97 271.97 0 0 1 4 18c-3.458 1.235-6.458 3.235-9 6-.929-1.189-1.262-2.522-1-4a14.828 14.828 0 0 0-6.5 2 18.473 18.473 0 0 0-3.5-2c-2.067-3.293-3.4-6.96-4-11-2.017-1.173-2.684-2.673-2-4.5-2.943-2.383-5.943-5.05-9-8a134.072 134.072 0 0 0-16.5-4.5c-2.09.652-4.257.819-6.5.5-3.188 2.612-6.521 3.778-10 3.5.219 1.175-.114 2.175-1 3-3.017.505-5.351 2.005-7 4.5-1.902 1.651-3.902 1.984-6 1 .457.414.791.914 1 1.5-4.333 1.667-7.333 4.667-9 9a161.63 161.63 0 0 1-20 14 15.69 15.69 0 0 1-2 4c-1.175-1.355-2.175-1.188-3 .5 1.211.893 1.211 1.726 0 2.5a9.108 9.108 0 0 1-5 1v4c-3.639-.078-6.306 1.422-8 4.5-1.941.304-3.607 1.137-5 2.5a3.647 3.647 0 0 1-1.5-1 12.403 12.403 0 0 0-2.5 4c-3.325.877-6.658 1.044-10 .5 1.168 1.406.835 2.572-1 3.5-4.477 3.235-9.477 5.402-15 6.5-1.035 3.611-2.702 4.111-5 1.5a91.504 91.504 0 0 1-24 9c-1.568 2.044-3.402 2.378-5.5 1a83.916 83.916 0 0 1-22.5 4v3a74.704 74.704 0 0 0-10-.5 91.604 91.604 0 0 0-6 5.5c-1.588-.51-2.755-1.51-3.5-3l-1 3c-1.667-2.667-3.333-2.667-5 0l-1-1a4.934 4.934 0 0 0-.5 3c-2.619.268-5.119-.065-7.5-1-1.316 2.547-3.149 3.213-5.5 2 .162 2.131-1.171 3.131-4 3 1.239-2.207 1.739-4.541 1.5-7a3.647 3.647 0 0 1-1.5 1c-1.141-1.921-1.308-3.921-.5-6l1 2c.71-1.473 1.876-2.14 3.5-2a48.801 48.801 0 0 1 2-8.5c.41-2.575-.59-4.242-3-5a10.258 10.258 0 0 0 4-1.5c-.589-1.873.078-3.54 2-5 1.771.535 2.104 1.369 1 2.5.949.617 1.782.451 2.5-.5a63.724 63.724 0 0 1 4.5-10c-1.063-1.866-.396-2.366 2-1.5.262 3.087-.072 6.253-1 9.5a8.43 8.43 0 0 1 4 .5c.529 2.429 1.863 4.262 4 5.5-1.023 2.395-.023 3.395 3 3 .02 1.643-.647 2.976-2 4 1.151 1.231 2.317 1.231 3.5 0-.813-3.339-.646-6.672.5-10h3c-.426-3.999 1.241-6.499 5-7.5-3.261-2.37-4.928-1.536-5 2.5-1.175.219-2.175-.114-3-1a29.637 29.637 0 0 0 4-13c2.972-.33 5.138.67 6.5 3a15.096 15.096 0 0 1 6-3l1.5 1.5a31.774 31.774 0 0 1-7 2.5c-1.216 2.57-1.883 5.07-2 7.5 7.129.79 13.629-.71 19.5-4.5-1.172-2.106-1.672-4.272-1.5-6.5 1.676-5.279 2.676-5.445 3-.5 6.268-.766 6.601-2.6 1-5.5.608-.87 1.441-1.37 2.5-1.5a22.625 22.625 0 0 0 8.5 5c-.82 1.611-2.154 2.278-4 2v3h4c.266-3.579 1.599-3.913 4-1a7.248 7.248 0 0 0 2.5-2c1.011.837 2.178 1.17 3.5 1 .17-1.322-.163-2.489-1-3.5 2.282-2.397 3.616-5.231 4-8.5h-6c-.14-1.624.527-2.79 2-3.5a25.513 25.513 0 0 1-4-4.5 11.38 11.38 0 0 1 2.5-2 29.144 29.144 0 0 1 2.5 5c1.193-2.027 2.027-4.027 2.5-6-.667 1.333-1.333 1.333-2 0a28.883 28.883 0 0 0-3.5-6 21.614 21.614 0 0 1-4 5c-2.324-.377-2.991-1.377-2-3-1.832-.557-3.165-1.557-4-3-.475-8.202.525-16.202 3-24 3.856-1.486 4.522-3.652 2-6.5 1.227-2.27 2.894-4.103 5-5.5-.891-1.09-1.891-1.09-3 0-.952-1.545-1.285-3.212-1-5 3.475-.497 6.808-.997 10-1.5-.88-1.356-1.214-2.856-1-4.5h4c.255 3.49-1.078 6.157-4 8 1.256-.53 2.756-.53 4.5 0 .232-1.237.732-2.237 1.5-3a34.175 34.175 0 0 0 5.5 9 8.43 8.43 0 0 1 .5 4h3c-.57 3.921 1.097 6.088 5 6.5 2.948 5.732 7.114 7.232 12.5 4.5 2.305 3.11 4.805 3.443 7.5 1 2.651 1.289 4.984.789 7-1.5l7-1c9.264-5.93 19.264-10.43 30-13.5.886-.825 1.219-1.825 1-3a31.774 31.774 0 0 0 7-2.5c.837-1.011 1.17-2.178 1-3.5 6.218-1.248 9.884-4.915 11-11l-1-2c1.621-2.739 2.621-5.739 3-9a37.811 37.811 0 0 1-2.5-12 286.29 286.29 0 0 1-8.5-10 10.258 10.258 0 0 1-1.5-4 59.093 59.093 0 0 1-8.5-1 34.616 34.616 0 0 1-11 2.5c-4.276 2.631-8.942 4.464-14 5.5-2.801 3.351-6.468 4.851-11 4.5-1.942 2.901-4.275 3.068-7 .5a1626.941 1626.941 0 0 1-11.5-33c-1.238-3.444-3.405-6.11-6.5-8l1-2c-3.487-3.481-6.154-7.481-8-12-2.651-4.147-1.984-5.313 2-3.5-.659-2.781.341-5.114 3-7a15.256 15.256 0 0 0 4.5-1.5 8.43 8.43 0 0 1 .5 4c-1.984-.117-3.65.55-5 2 4.609 1 7.275-1 8-6 .951.826 1.951.992 3 .5l-1-1c2.189-.677 2.522-1.844 1-3.5 1.684-1.354 2.184-3.021 1.5-5-2.301 1.367-4.801 2.034-7.5 2-1.056 4.185-3.223 4.852-6.5 2 .748-3.237 1.915-6.404 3.5-9.5l-1.5-1.5a22.755 22.755 0 0 0-4 5 178.936 178.936 0 0 0-9.5-4c-2.773.968-5.273 2.301-7.5 4a19.887 19.887 0 0 1-3.5-4c3.671-2.66 3.504-3.993-.5-4-5.645 1.315-5.811 3.148-.5 5.5-2.544 2.386-5.544 3.386-9 3a7.293 7.293 0 0 0 3-2 61.981 61.981 0 0 1-13-2 7.293 7.293 0 0 1 3-2c-3.441-.836-3.608-1.669-.5-2.5l7.5 1.5c-1.388.889-1.222 1.389.5 1.5 2.319-.909 2.986-2.575 2-5-2.401 1.102-4.901 1.269-7.5.5a36.3 36.3 0 0 0 8-3l-6.5-4.5a4.934 4.934 0 0 0-.5 3 4.934 4.934 0 0 0-3 .5l4 1c-4.944.775-7.611 3.609-8 8.5a38.989 38.989 0 0 1-12-2v-3a8.43 8.43 0 0 0-4 .5c1.941 1.816 2.608 3.816 2 6-.292 3.067-1.792 5.234-4.5 6.5-5.145-2.701-7.978-6.701-8.5-12-1.72 1.434-3.72 2.267-6 2.5 2.832 1.908 2.499 2.741-1 2.5a18.453 18.453 0 0 1-.5 6c-1.397 1.377-2.897 2.21-4.5 2.5l1 1.5c2.172-.176 4.505-.343 7-.5-2.422-1.888-2.422-3.888 0-6 2.309-.756 4.309-.256 6 1.5a14.72 14.72 0 0 1-5 1.5 4.457 4.457 0 0 1 2 1.5c-.827 2.441-.827 4.607 0 6.5l3 2.5c-.38 1.521-.546 3.187-.5 5-1.063.938-2.23 1.938-3.5 3 1 2.667 2 2.667 3 0 .831 1.973.998 3.973.5 6 .914 1.154 1.747.987 2.5-.5-.951-.718-1.117-1.551-.5-2.5a32.79 32.79 0 0 0 3.5 5.5c-1.696 1.266-3.529 1.1-5.5-.5l-.5 1c-.588 2.838.079 5.504 2 8l-1 3-4-4c-1.667 1.333-3.333 1.333-5 0a19.887 19.887 0 0 0-4-3.5c3.17-1.17 3.67-3.003 1.5-5.5a4.934 4.934 0 0 0-.5 3c-4.596 1.578-5.596.411-3-3.5a3.943 3.943 0 0 0-1-2 66.615 66.615 0 0 1 6-2.5c4.388-6.776 3.222-8.109-3.5-4-1.836-1.631-1.336-2.298 1.5-2 .278-1.846-.389-3.18-2-4a17.808 17.808 0 0 0-3.5 5 20.889 20.889 0 0 0-3.5-6.5c2.058-2.742 3.058-5.909 3-9.5 4-.333 4-.667 0-1a12.93 12.93 0 0 0-.5-5 133.394 133.394 0 0 0-7.5-4l1.5-1c1.605 1.564 3.438 2.064 5.5 1.5.944-2.719 1.277-5.552 1-8.5-2.931-.506-5.765-.506-8.5 0a24.78 24.78 0 0 1-5-5c-2.024.794-4.024.461-6-1-.667 1.667-.667 3.333 0 5 .741-1.141 1.575-1.141 2.5 0 4.016 4.63 3.016 6.963-3 7a10.258 10.258 0 0 0 4 1.5l-5 3.5a19.887 19.887 0 0 0 4 3.5 9.454 9.454 0 0 0-2.5 1.5 6.802 6.802 0 0 0-1.5-3c-.699 2.112-.199 4.112 1.5 6 2.243-1.471 4.743-2.471 7.5-3a12.375 12.375 0 0 0-5-4.5c.608-.87 1.441-1.37 2.5-1.5a74.344 74.344 0 0 0 9.5 1.5c-.597 1.628-.263 3.295 1 5a103.682 103.682 0 0 1-14 2.5 8.43 8.43 0 0 1-.5 4c-3.418-.766-6.918-.766-10.5 0v-4a8.43 8.43 0 0 1-4-.5c1.247-1.494 1.247-2.994 0-4.5-.925 1.141-1.759 1.141-2.5 0-4.755 2.316-4.589 4.15.5 5.5a14.72 14.72 0 0 0-5 1.5c1.141.925 1.141 1.759 0 2.5 1.646 1.401 3.313 1.568 5 .5-2.631-1.505-2.297-2.171 1-2v4c-3.202.129-5.535 1.629-7 4.5 2.798 1.372 5.465.872 8-1.5l2 3 2-5a102.505 102.505 0 0 0 2.5 8l1-7c1.009 1.525 1.509 3.192 1.5 5 4.72.275 5.054-.559 1-2.5a9.454 9.454 0 0 0 1.5-2.5 7.293 7.293 0 0 0 2 3c2.041-.923 4.208-1.256 6.5-1-.174-3.345 1.159-4.512 4-3.5a13.24 13.24 0 0 0 3-5c1.225-.563 2.225-.23 3 1-2.453 2.171-3.453 4.671-3 7.5a206.497 206.497 0 0 1-12.5 5c-.667.667-.667 1.333 0 2 2.833-1.167 3.667-.333 2.5 2.5-2.082-.932-4.415-1.432-7-1.5a8.43 8.43 0 0 0-.5-4 22.981 22.981 0 0 1-2 5c-1.989-3.783-5.156-5.283-9.5-4.5 4.426 2.497 4.26 5.33-.5 8.5a8.43 8.43 0 0 0-.5 4 8.43 8.43 0 0 0-4 .5c1.388.889 1.222 1.389-.5 1.5-3.436-1.134-6.603-2.634-9.5-4.5a34.099 34.099 0 0 0 6-3c2.398-.374 4.731-.374 7 0 1.035-1.507.868-3.007-.5-4.5a359.177 359.177 0 0 1-13.5 5.5c-1.333 1-1.333 2 0 3a4.934 4.934 0 0 1-3 .5v3c-1.788.285-3.455-.048-5-1 1.189-.929 2.522-1.262 4-1-.203-2.138-1.203-3.805-3-5 1.276-1.145 2.609-1.145 4 0 2.848-1.76 2.514-2.76-1-3-4.756.372-8.089 2.706-10 7a604.676 604.676 0 0 0 3 3.5l-1 1.5c-1.196-.346-1.196-.846 0-1.5a8.192 8.192 0 0 1-4-2.5c-3.94 1.336-4.606.503-2-2.5-.88-1.356-1.214-2.856-1-4.5a12.93 12.93 0 0 0 5-.5c-2.124-.961-3.291-2.128-3.5-3.5a9.568 9.568 0 0 0-3 3c-1.912-2.156-3.079-4.323-3.5-6.5 1.001-2.502 2.667-3.002 5-1.5a13.015 13.015 0 0 1 4.5 4 4.457 4.457 0 0 1 1.5-2c1.617 1.142 3.45 1.809 5.5 2a90.556 90.556 0 0 1 11.5-3c-.518-2.86-2.184-4.86-5-6a15.69 15.69 0 0 1 4-2c.886-.825 1.219-1.825 1-3-4.021.256-5.354-1.41-4-5l10-5c-1.575-.946-3.242-.946-5 0-1.607-.137-2.941-.804-4-2 1.784-1.106 3.618-1.106 5.5 0a9.258 9.258 0 0 0 2.5-2 9.258 9.258 0 0 0 2.5 2l2-4a19.953 19.953 0 0 1 4.5 3c-8.304 3.834-7.971 5.334 1 4.5a9.568 9.568 0 0 1 3 3c-.891 3.05.109 3.384 3 1-2.301-2.003-2.301-3.837 0-5.5l-1-2 4-3c-1.211-1.22-1.211-2.387 0-3.5-1.005-1.507-2.338-2.673-4-3.5 3.456-1.213 4.289-3.213 2.5-6-.605 1.981-1.605 2.315-3 1a20.64 20.64 0 0 1-2-6c-1.954 2.285-1.787 4.452.5 6.5a54.628 54.628 0 0 0-7 2 9.454 9.454 0 0 0-1.5 2.5c-2.139-1.269-4.305-1.269-6.5 0a10.258 10.258 0 0 0 4 1.5 15.91 15.91 0 0 0-4.5 2.5c-1.12-1.575-2.62-2.575-4.5-3-2.126 1.286-4.459 2.119-7 2.5 1.473.71 2.14 1.876 2 3.5-1.624.14-2.79-.527-3.5-2a34.7 34.7 0 0 0-8.5 4.5c-5.978.771-6.311.104-1-2a124.37 124.37 0 0 0-11.5-5.5c-3.413.936-3.913 2.436-1.5 4.5a29.927 29.927 0 0 1-9 2c-2.631 1.691-2.297 2.858 1 3.5-3.585 2.316-7.252 2.482-11 .5l2-1a7.293 7.293 0 0 1-3-2c1.537-1.11 2.203-2.61 2-4.5a21.028 21.028 0 0 0-7 2c-3.487-1.022-4.82-3.355-4-7-1.808-.009-3.475.491-5 1.5-1.333.667-1.333 1.333 0 2-1.759.798-3.426.631-5-.5l1-2a44.093 44.093 0 0 1-3-2c2.064-.262 3.397-1.429 4-3.5a414.963 414.963 0 0 0 33-11 6.547 6.547 0 0 0 3-3 187.655 187.655 0 0 0 10-4.5 52.141 52.141 0 0 1 10-1.5c2.865-2.286 6.198-3.12 10-2.5-.411-2.776.422-3.443 2.5-2a719.223 719.223 0 0 1 17.5-8c2.12 1.372 3.12.705 3-2 4.695-2.218 9.695-3.385 15-3.5 1.378-3.429 3.711-4.263 7-2.5 2.904-2.454 6.238-3.787 10-4v-3a18.453 18.453 0 0 0 6-.5 3026.558 3026.558 0 0 0 34-12.5 16.873 16.873 0 0 1 8-1v-3c4.37-1.769 9.037-2.935 14-3.5 1.504-1.788 3.171-2.288 5-1.5 6.959-3.262 14.292-5.429 22-6.5 7.375-4.344 15.375-6.511 24-6.5v-3a220.347 220.347 0 0 1 17 6c5.878 8.41 10.545 17.577 14 27.5a55.752 55.752 0 0 1 6 6.5c3.349 7.73 6.682 15.397 10 23Z"/><path style="opacity:.235" fill="#503416" d="M653.5 104.5c-.992.172-1.658-.162-2-1 1.123-1.257 1.789-.924 2 1Z"/><path style="opacity:.037" fill="#1b0501" d="M477.5 104.5c.111.617.444 1.117 1 1.5-2.063 1.493-4.063 1.326-6-.5 1.75-.733 3.417-1.066 5-1Z"/><path style="opacity:.125" fill="#17191d" d="M435.5 121.5c-.342.838-1.008 1.172-2 1 .211-1.924.877-2.257 2-1Z"/><path style="opacity:.043" d="M423.5 125.5c-.865.064-1.865.397-3 1 .553-2.052 1.553-2.385 3-1Z"/><path style="opacity:.085" fill="#161e1d" d="M669.5 142.5h3c.268 1.599-.066 2.932-1 4-1.1-1.105-1.767-2.438-2-4Z"/><path style="opacity:.053" fill="#030000" d="M368.5 148.5c-1.574 1.428-3.241 1.761-5 1 1.396-1.873 3.063-2.206 5-1Z"/><path style="opacity:.051" d="M353.5 152.5c-.742 1.85-1.742 2.516-3 2 .473-1.406 1.473-2.073 3-2Z"/><path style="opacity:.048" d="M344.5 157.5c-1.298.616-2.298.616-3 0 1-1.333 2-1.333 3 0Z"/><path style="opacity:.106" fill="#271314" d="M682.5 168.5c1.713 1.135 2.38 2.802 2 5-2.73-1.011-3.397-2.678-2-5Z"/><path style="opacity:.118" fill="#1f3540" d="M286.5 178.5a6.547 6.547 0 0 1-3 3c-1.067-2.379-.067-3.379 3-3Z"/><path style="opacity:.077" fill="#261b0b" d="M692.5 192.5c1.609 1.165 1.943 2.499 1 4a2.428 2.428 0 0 1-2-.5c.837-1.011 1.17-2.178 1-3.5Z"/><path style="opacity:.052" d="M224.5 203.5c-.683 1.676-2.017 2.343-4 2 1.014-1.174 2.347-1.84 4-2Z"/><path style="opacity:1" fill="#bee5f9" d="M338.5 230.5c-5.94 1.46-11.607.793-17-2a39.1 39.1 0 0 1-2-6.5c1.612-1.482 2.612-3.315 3-5.5 3.007-1.014 6.007-2.014 9-3v-3c4.783-.284 8.449-2.45 11-6.5a8.43 8.43 0 0 1 4-.5c2.544.396 4.711-.271 6.5-2l2 4c2.538-.899 5.038-.566 7.5 1a123.004 123.004 0 0 1 2 8c-1.189.929-2.522 1.262-4 1a4.934 4.934 0 0 1-.5 3c-5.527 5.007-12.027 8.007-19.5 9-1.112.765-1.779 1.765-2 3Z"/><path style="opacity:.087" d="M701.5 215.5c1.756 1.052 2.423 2.719 2 5-1.037-1.43-1.704-3.097-2-5Z"/><path style="opacity:1" fill="#fdfefe" d="M560.5 223.5c1.846 4.519 4.513 8.519 8 12l-1 2c3.095 1.89 5.262 4.556 6.5 8a1626.941 1626.941 0 0 0 11.5 33c2.725 2.568 5.058 2.401 7-.5 4.532.351 8.199-1.149 11-4.5 5.058-1.036 9.724-2.869 14-5.5a34.616 34.616 0 0 0 11-2.5c2.878.547 5.711.88 8.5 1a10.258 10.258 0 0 0 1.5 4 286.29 286.29 0 0 0 8.5 10 37.811 37.811 0 0 0 2.5 12c-.379 3.261-1.379 6.261-3 9l1 2c-1.116 6.085-4.782 9.752-11 11 .17 1.322-.163 2.489-1 3.5a31.774 31.774 0 0 1-7 2.5c.219 1.175-.114 2.175-1 3-10.736 3.07-20.736 7.57-30 13.5l-7 1c-2.016 2.289-4.349 2.789-7 1.5-2.695 2.443-5.195 2.11-7.5-1-5.386 2.732-9.552 1.232-12.5-4.5-3.903-.412-5.57-2.579-5-6.5h-3a8.43 8.43 0 0 0-.5-4 34.175 34.175 0 0 1-5.5-9 467.822 467.822 0 0 1-9.5-22c-5.068-2.798-6.901-7.132-5.5-13-1.322.17-2.489-.163-3.5-1l-1-7a702.013 702.013 0 0 1-10-27 26.67 26.67 0 0 0-1.5-6.5c1.304-.804 1.971-1.971 2-3.5-.728-1.655-.895-3.321-.5-5a64.159 64.159 0 0 0 7.5-8l2 1a195.665 195.665 0 0 0 14-5c1.56 1.107 3.06 1.107 4.5 0 2.231 1.7 4.731 2.7 7.5 3v3h5Z"/><path style="opacity:.129" fill="#150100" d="M175.5 219.5c-.709.904-1.709 1.237-3 1 .721-1.882 1.721-2.215 3-1Z"/><path style="opacity:1" fill="#86cef3" d="M560.5 223.5h-5v-3c-2.769-.3-5.269-1.3-7.5-3-1.44 1.107-2.94 1.107-4.5 0a195.665 195.665 0 0 1-14 5l-2-1a64.159 64.159 0 0 1-7.5 8c-.395 1.679-.228 3.345.5 5-.029 1.529-.696 2.696-2 3.5a26.67 26.67 0 0 1 1.5 6.5 702.013 702.013 0 0 0 10 27l1 7c1.011.837 2.178 1.17 3.5 1-1.401 5.868.432 10.202 5.5 13a467.822 467.822 0 0 0 9.5 22c-.768.763-1.268 1.763-1.5 3-1.744-.53-3.244-.53-4.5 0 2.922-1.843 4.255-4.51 4-8h-4c-.214 1.644.12 3.144 1 4.5a711.049 711.049 0 0 1-10 1.5c-.285 1.788.048 3.455 1 5 1.109-1.09 2.109-1.09 3 0-2.106 1.397-3.773 3.23-5 5.5 2.522 2.848 1.856 5.014-2 6.5-1.385-2.759-2.052-5.759-2-9 1.698-3.929 1.031-7.263-2-10a12.906 12.906 0 0 0 1-4 62.215 62.215 0 0 1-4-18h-3c-.434-3.794-2.101-6.961-5-9.5l2-2a41.684 41.684 0 0 0-11-7.5c-1.915-1.571-2.915-3.571-3-6a12.93 12.93 0 0 1-5-.5c-8.077-6.294-17.077-10.127-27-11.5-3.135 1.283-6.135 1.283-9 0 3.578-.637 3.912-2.137 1-4.5a54.628 54.628 0 0 0 7-2c1.385-1.965 1.218-3.798-.5-5.5-.29 1.544-.956 2.877-2 4-1.458-1.247-2.958-1.247-4.5 0-.952-1.545-1.285-3.212-1-5a8.43 8.43 0 0 0 4-.5 8.905 8.905 0 0 1 4-3c.88-1.356 1.214-2.856 1-4.5 3.034-.109 4.034-1.443 3-4a51.064 51.064 0 0 0-5.5 4c-1.583.007-3.249-.326-5-1-.519 1.016-1.353 1.682-2.5 2-1.91-1.048-3.744-1.048-5.5 0l-2-2a12.93 12.93 0 0 0-.5 5c1.951.273 3.451-.393 4.5-2a8.43 8.43 0 0 1 .5 4c-2.982-.327-5.815-.327-8.5 0l-.5-1c2.862-.806 3.362-2.139 1.5-4-.667 1.333-1.333 1.333-2 0l-1 3a50.162 50.162 0 0 0-7-4c.122 1.742-1.045 3.075-3.5 4 1.151 1.231 2.317 1.231 3.5 0 .9 1.27 2.066 2.27 3.5 3-.825.886-1.825 1.219-3 1-.156 3.635-1.322 3.968-3.5 1a4.934 4.934 0 0 0-.5 3c1.788-.285 3.455.048 5 1-1.434.73-2.6 1.73-3.5 3-.71-1.473-1.876-2.14-3.5-2 .282-2.847.282-5.513 0-8a42.162 42.162 0 0 0-15 6l-8-2c-2.204.027-3.038 1.027-2.5 3 3.566-2.841 4.066-2.508 1.5 1 2.047 1.515 4.381 2.349 7 2.5a48.165 48.165 0 0 0-5 2.5c3.371.423 6.205 1.757 8.5 4 2.604-3.873 6.104-6.04 10.5-6.5a42.36 42.36 0 0 0-1.5 8.5c-2.46 1.255-3.627 3.255-3.5 6-3.719-.728-6.719.272-9 3l-2-2a26.393 26.393 0 0 0-5 4.5c-1.884.216-3.551.883-5 2l1.5 1.5a62.825 62.825 0 0 1 9.5-4c.333 3-1 4.333-4 4-.239 1.967.094 3.801 1 5.5-1.249 1.824-2.415 1.657-3.5-.5-1.617 1.036-1.784 2.203-.5 3.5-.949.617-1.782.451-2.5-.5a15.256 15.256 0 0 1-1.5 4.5c-1.994 1.368-3.994 1.868-6 1.5l-2-4c-4.623-2.471-9.623-3.638-15-3.5a64.231 64.231 0 0 0-9-10c-2.287.958-3.953.124-5-2.5 2.005-2.845 4.671-4.678 8-5.5a32.462 32.462 0 0 0-8-.5v-3h-3c-.545-6.268-3.212-7.435-8-3.5 1.063 1.188 2.397 1.688 4 1.5-.638 1.96-.638 3.793 0 5.5-2.382 2.05-1.882 3.55 1.5 4.5 1.465-.83 2.965-.996 4.5-.5-1.333 1.333-1.333 2.667 0 4-1.172.353-2.338.187-3.5-.5a15.91 15.91 0 0 1-4.5 2.5c.886 1.902.553 3.735-1 5.5a62.323 62.323 0 0 0-5.5-1 19.953 19.953 0 0 0-4.5 3c.516-1.258-.15-2.258-2-3-1.871 1.267-3.704 1.267-5.5 0-3.159 1.944-2.659 3.11 1.5 3.5a6.547 6.547 0 0 1-3 3 45.278 45.278 0 0 0 8 2.5c-3.396.114-7.063.447-11 1 .048-2.792-1.285-4.625-4-5.5-2.398-.374-4.731-.374-7 0 .655-1.487 1.655-2.653 3-3.5 2.721 1.889 5.387 2.055 8 .5a7.293 7.293 0 0 1-3-2 36.167 36.167 0 0 0 8-2.5 3.647 3.647 0 0 0-1-1.5 42.36 42.36 0 0 0 8.5-1.5c1.973 3.533 4.806 4.866 8.5 4a10.258 10.258 0 0 0-4-1.5 66.656 66.656 0 0 1 5-3.5 28.043 28.043 0 0 1-1.5-5c-2.262-3.82-5.429-4.82-9.5-3-.387 2.231-.553 4.564-.5 7-1.294.399-2.794.399-4.5 0 1.789-1.123 2.122-2.456 1-4a3.647 3.647 0 0 0-1.5 1c-.825-3.102.175-5.436 3-7 1.373-.096 2.873.07 4.5.5a11.333 11.333 0 0 1-1.5-3.5c-1.399.001-2.899.335-4.5 1a4.457 4.457 0 0 1-2-1.5 16.363 16.363 0 0 0 5-5.5c.793.431 1.627.765 2.5 1a34.802 34.802 0 0 1 6-3c.283 3.242 1.117 3.576 2.5 1-1.379-1.363-1.213-2.363.5-3l1.5 1a6.846 6.846 0 0 0-1 4 8.43 8.43 0 0 0 4-.5c-1.333-.667-1.333-1.333 0-2 3.407-.482 6.74-.482 10 0-1.017-1.049-1.184-2.216-.5-3.5a19.887 19.887 0 0 0 3.5-4c-2.481-.992-3.981.008-4.5 3-3.54-3.151-5.874-2.485-7 2-3.94-.532-7.106-2.365-9.5-5.5a97.58 97.58 0 0 0-3-8.5c1.175.219 2.175-.114 3-1-1.512-1.362-3.012-1.696-4.5-1-.624 2.254-1.957 3.921-4 5 .263 1.451.096 2.784-.5 4-3.895-3.374-3.562-5.54 1-6.5a10.258 10.258 0 0 1-4-1.5 3.647 3.647 0 0 1 1-1.5c-2.331.157-4.664.657-7 1.5.221-1.235.888-2.235 2-3 7.473-.993 13.973-3.993 19.5-9a4.934 4.934 0 0 0 .5-3c1.478.262 2.811-.071 4-1a123.004 123.004 0 0 0-2-8c-2.462-1.566-4.962-1.899-7.5-1l-2-4c-1.789 1.729-3.956 2.396-6.5 2 1.068-.934 2.401-1.268 4-1v-5c-2.371-.842-4.704-1.176-7-1a9.425 9.425 0 0 0-3-3 9.108 9.108 0 0 0 1-5 31.71 31.71 0 0 0 6-2 3.647 3.647 0 0 1 1.5 1c1.424-2.376 3.424-4.043 6-5 .765.07 1.265.403 1.5 1a44.093 44.093 0 0 0 3 2l-1 2c1.574 1.131 3.241 1.298 5 .5-1.333-.667-1.333-1.333 0-2 1.525-1.009 3.192-1.509 5-1.5-.82 3.645.513 5.978 4 7a21.028 21.028 0 0 1 7-2c.203 1.89-.463 3.39-2 4.5a7.293 7.293 0 0 0 3 2l-2 1c3.748 1.982 7.415 1.816 11-.5-3.297-.642-3.631-1.809-1-3.5a29.927 29.927 0 0 0 9-2c-2.413-2.064-1.913-3.564 1.5-4.5a124.37 124.37 0 0 1 11.5 5.5c-5.311 2.104-4.978 2.771 1 2a34.7 34.7 0 0 1 8.5-4.5c.71 1.473 1.876 2.14 3.5 2 .14-1.624-.527-2.79-2-3.5 2.541-.381 4.874-1.214 7-2.5 1.88.425 3.38 1.425 4.5 3a15.91 15.91 0 0 1 4.5-2.5 10.258 10.258 0 0 1-4-1.5c2.195-1.269 4.361-1.269 6.5 0a9.454 9.454 0 0 1 1.5-2.5 54.628 54.628 0 0 1 7-2c-2.287-2.048-2.454-4.215-.5-6.5a20.64 20.64 0 0 0 2 6c1.395 1.315 2.395.981 3-1 1.789 2.787.956 4.787-2.5 6 1.662.827 2.995 1.993 4 3.5-1.211 1.113-1.211 2.28 0 3.5l-4 3 1 2c-2.301 1.663-2.301 3.497 0 5.5-2.891 2.384-3.891 2.05-3-1a9.568 9.568 0 0 0-3-3c-8.971.834-9.304-.666-1-4.5a19.953 19.953 0 0 0-4.5-3l-2 4a9.258 9.258 0 0 1-2.5-2 9.258 9.258 0 0 1-2.5 2c-1.882-1.106-3.716-1.106-5.5 0 1.059 1.196 2.393 1.863 4 2 1.758-.946 3.425-.946 5 0l-10 5c-1.354 3.59-.021 5.256 4 5 .219 1.175-.114 2.175-1 3a15.69 15.69 0 0 0-4 2c2.816 1.14 4.482 3.14 5 6a90.556 90.556 0 0 0-11.5 3c-2.05-.191-3.883-.858-5.5-2a4.457 4.457 0 0 0-1.5 2 13.015 13.015 0 0 0-4.5-4c-2.333-1.502-3.999-1.002-5 1.5.421 2.177 1.588 4.344 3.5 6.5a9.568 9.568 0 0 1 3-3c.209 1.372 1.376 2.539 3.5 3.5a12.93 12.93 0 0 1-5 .5c-.214 1.644.12 3.144 1 4.5-2.606 3.003-1.94 3.836 2 2.5a8.192 8.192 0 0 0 4 2.5c-1.196.654-1.196 1.154 0 1.5l1-1.5a604.676 604.676 0 0 1-3-3.5c1.911-4.294 5.244-6.628 10-7 3.514.24 3.848 1.24 1 3-1.391-1.145-2.724-1.145-4 0 1.797 1.195 2.797 2.862 3 5-1.478-.262-2.811.071-4 1 1.545.952 3.212 1.285 5 1v-3a4.934 4.934 0 0 0 3-.5c-1.333-1-1.333-2 0-3a359.177 359.177 0 0 0 13.5-5.5c1.368 1.493 1.535 2.993.5 4.5-2.269-.374-4.602-.374-7 0a34.099 34.099 0 0 1-6 3c2.897 1.866 6.064 3.366 9.5 4.5 1.722-.111 1.888-.611.5-1.5a8.43 8.43 0 0 1 4-.5 8.43 8.43 0 0 1 .5-4c4.76-3.17 4.926-6.003.5-8.5 4.344-.783 7.511.717 9.5 4.5a22.981 22.981 0 0 0 2-5 8.43 8.43 0 0 1 .5 4c2.585.068 4.918.568 7 1.5 1.167-2.833.333-3.667-2.5-2.5-.667-.667-.667-1.333 0-2a206.497 206.497 0 0 0 12.5-5c-.453-2.829.547-5.329 3-7.5-.775-1.23-1.775-1.563-3-1a13.24 13.24 0 0 1-3 5c-2.841-1.012-4.174.155-4 3.5-2.292-.256-4.459.077-6.5 1a7.293 7.293 0 0 1-2-3 9.454 9.454 0 0 1-1.5 2.5c4.054 1.941 3.72 2.775-1 2.5.009-1.808-.491-3.475-1.5-5l-1 7a102.505 102.505 0 0 1-2.5-8l-2 5-2-3c-2.535 2.372-5.202 2.872-8 1.5 1.465-2.871 3.798-4.371 7-4.5v-4c-3.297-.171-3.631.495-1 2-1.687 1.068-3.354.901-5-.5 1.141-.741 1.141-1.575 0-2.5a14.72 14.72 0 0 1 5-1.5c-5.089-1.35-5.255-3.184-.5-5.5.741 1.141 1.575 1.141 2.5 0 1.247 1.506 1.247 3.006 0 4.5a8.43 8.43 0 0 0 4 .5v4c3.582-.766 7.082-.766 10.5 0a8.43 8.43 0 0 0 .5-4c4.707-.51 9.373-1.343 14-2.5-1.263-1.705-1.597-3.372-1-5a74.344 74.344 0 0 1-9.5-1.5c-1.059.13-1.892.63-2.5 1.5a12.375 12.375 0 0 1 5 4.5c-2.757.529-5.257 1.529-7.5 3-1.699-1.888-2.199-3.888-1.5-6a6.802 6.802 0 0 1 1.5 3 9.454 9.454 0 0 1 2.5-1.5 19.887 19.887 0 0 1-4-3.5l5-3.5a10.258 10.258 0 0 1-4-1.5c6.016-.037 7.016-2.37 3-7-.925-1.141-1.759-1.141-2.5 0-.667-1.667-.667-3.333 0-5 1.976 1.461 3.976 1.794 6 1a24.78 24.78 0 0 0 5 5c2.735-.506 5.569-.506 8.5 0 .277 2.948-.056 5.781-1 8.5-2.062.564-3.895.064-5.5-1.5l-1.5 1a133.394 133.394 0 0 1 7.5 4 12.93 12.93 0 0 1 .5 5c4 .333 4 .667 0 1 .058 3.591-.942 6.758-3 9.5a20.889 20.889 0 0 1 3.5 6.5 17.808 17.808 0 0 1 3.5-5c1.611.82 2.278 2.154 2 4-2.836-.298-3.336.369-1.5 2 6.722-4.109 7.888-2.776 3.5 4a66.615 66.615 0 0 0-6 2.5 3.943 3.943 0 0 1 1 2c-2.596 3.911-1.596 5.078 3 3.5a4.934 4.934 0 0 1 .5-3c2.17 2.497 1.67 4.33-1.5 5.5a19.887 19.887 0 0 1 4 3.5c1.667 1.333 3.333 1.333 5 0l4 4 1-3c-1.921-2.496-2.588-5.162-2-8l.5-1c1.971 1.6 3.804 1.766 5.5.5a32.79 32.79 0 0 1-3.5-5.5c-.617.949-.451 1.782.5 2.5-.753 1.487-1.586 1.654-2.5.5.498-2.027.331-4.027-.5-6-1 2.667-2 2.667-3 0a174.359 174.359 0 0 0 3.5-3c-.046-1.813.12-3.479.5-5l-3-2.5c-.827-1.893-.827-4.059 0-6.5a4.457 4.457 0 0 0-2-1.5 14.72 14.72 0 0 0 5-1.5c-1.691-1.756-3.691-2.256-6-1.5-2.422 2.112-2.422 4.112 0 6-2.495.157-4.828.324-7 .5l-1-1.5c1.603-.29 3.103-1.123 4.5-2.5.495-1.973.662-3.973.5-6 3.499.241 3.832-.592 1-2.5 2.28-.233 4.28-1.066 6-2.5.522 5.299 3.355 9.299 8.5 12 2.708-1.266 4.208-3.433 4.5-6.5.608-2.184-.059-4.184-2-6a8.43 8.43 0 0 1 4-.5v3a38.989 38.989 0 0 0 12 2c.389-4.891 3.056-7.725 8-8.5l-4-1a4.934 4.934 0 0 1 3-.5 4.934 4.934 0 0 1 .5-3l6.5 4.5a36.3 36.3 0 0 1-8 3c2.599.769 5.099.602 7.5-.5.986 2.425.319 4.091-2 5-1.722-.111-1.888-.611-.5-1.5l-7.5-1.5c-3.108.831-2.941 1.664.5 2.5a7.293 7.293 0 0 0-3 2 61.981 61.981 0 0 0 13 2 7.293 7.293 0 0 1-3 2c3.456.386 6.456-.614 9-3-5.311-2.352-5.145-4.185.5-5.5 4.004.007 4.171 1.34.5 4a19.887 19.887 0 0 0 3.5 4c2.227-1.699 4.727-3.032 7.5-4a178.936 178.936 0 0 1 9.5 4 22.755 22.755 0 0 1 4-5l1.5 1.5c-1.585 3.096-2.752 6.263-3.5 9.5 3.277 2.852 5.444 2.185 6.5-2 2.699.034 5.199-.633 7.5-2 .684 1.979.184 3.646-1.5 5 1.522 1.656 1.189 2.823-1 3.5l1 1c-1.049.492-2.049.326-3-.5-.725 5-3.391 7-8 6 1.35-1.45 3.016-2.117 5-2a8.43 8.43 0 0 0-.5-4 15.256 15.256 0 0 1-4.5 1.5c-2.659 1.886-3.659 4.219-3 7-3.984-1.813-4.651-.647-2 3.5Z"/><path style="opacity:.06" fill="#060000" d="M117.5 240.5c-.41 2.931-1.744 3.597-4 2 .787-1.604 2.12-2.271 4-2Z"/><path style="opacity:.089" fill="#080000" d="M103.5 247.5a5.727 5.727 0 0 1-3 1c.553-2.052 1.553-2.385 3-1Z"/><path style="opacity:1" fill="#83cdf2" d="M341.5 188.5a9.108 9.108 0 0 1-1 5 9.425 9.425 0 0 1 3 3c2.296-.176 4.629.158 7 1v5c-1.599-.268-2.932.066-4 1a8.43 8.43 0 0 0-4 .5c-2.551 4.05-6.217 6.216-11 6.5v3c-2.993.986-5.993 1.986-9 3-.388 2.185-1.388 4.018-3 5.5a39.1 39.1 0 0 0 2 6.5c5.393 2.793 11.06 3.46 17 2 2.336-.843 4.669-1.343 7-1.5a3.647 3.647 0 0 0-1 1.5 10.258 10.258 0 0 0 4 1.5c-4.562.96-4.895 3.126-1 6.5.596-1.216.763-2.549.5-4 2.043-1.079 3.376-2.746 4-5 1.488-.696 2.988-.362 4.5 1-.825.886-1.825 1.219-3 1a97.58 97.58 0 0 1 3 8.5c2.394 3.135 5.56 4.968 9.5 5.5 1.126-4.485 3.46-5.151 7-2 .519-2.992 2.019-3.992 4.5-3a19.887 19.887 0 0 1-3.5 4c-.684 1.284-.517 2.451.5 3.5-3.26-.482-6.593-.482-10 0-1.333.667-1.333 1.333 0 2a8.43 8.43 0 0 1-4 .5 6.846 6.846 0 0 1 1-4l-1.5-1c-1.713.637-1.879 1.637-.5 3-1.383 2.576-2.217 2.242-2.5-1a34.802 34.802 0 0 0-6 3 11.456 11.456 0 0 1-2.5-1 16.363 16.363 0 0 1-5 5.5 4.457 4.457 0 0 0 2 1.5c1.601-.665 3.101-.999 4.5-1a11.333 11.333 0 0 0 1.5 3.5c-1.627-.43-3.127-.596-4.5-.5-2.825 1.564-3.825 3.898-3 7a3.647 3.647 0 0 1 1.5-1c1.122 1.544.789 2.877-1 4 1.706.399 3.206.399 4.5 0-.053-2.436.113-4.769.5-7 4.071-1.82 7.238-.82 9.5 3a28.043 28.043 0 0 0 1.5 5 66.656 66.656 0 0 0-5 3.5c1.438.219 2.771.719 4 1.5-3.694.866-6.527-.467-8.5-4a42.36 42.36 0 0 1-8.5 1.5c.457.414.791.914 1 1.5a36.167 36.167 0 0 1-8 2.5 7.293 7.293 0 0 0 3 2c-2.613 1.555-5.279 1.389-8-.5-1.345.847-2.345 2.013-3 3.5 2.269-.374 4.602-.374 7 0 2.715.875 4.048 2.708 4 5.5 3.937-.553 7.604-.886 11-1a45.278 45.278 0 0 1-8-2.5 6.547 6.547 0 0 0 3-3c-4.159-.39-4.659-1.556-1.5-3.5 1.796 1.267 3.629 1.267 5.5 0 1.85.742 2.516 1.742 2 3a19.953 19.953 0 0 1 4.5-3c1.781.239 3.614.572 5.5 1 1.553-1.765 1.886-3.598 1-5.5a15.91 15.91 0 0 0 4.5-2.5c1.162.687 2.328.853 3.5.5-1.333-1.333-1.333-2.667 0-4-1.535-.496-3.035-.33-4.5.5-3.382-.95-3.882-2.45-1.5-4.5-.638-1.707-.638-3.54 0-5.5-1.603.188-2.937-.312-4-1.5 4.788-3.935 7.455-2.768 8 3.5h3v3a32.462 32.462 0 0 1 8 .5c-3.329.822-5.995 2.655-8 5.5 1.047 2.624 2.713 3.458 5 2.5a64.231 64.231 0 0 1 9 10c5.377-.138 10.377 1.029 15 3.5l2 4c2.006.368 4.006-.132 6-1.5a15.256 15.256 0 0 0 1.5-4.5c.718.951 1.551 1.117 2.5.5-1.284-1.297-1.117-2.464.5-3.5 1.085 2.157 2.251 2.324 3.5.5-.906-1.699-1.239-3.533-1-5.5 3 .333 4.333-1 4-4a62.825 62.825 0 0 0-9.5 4l-1.5-1.5c1.449-1.117 3.116-1.784 5-2a26.393 26.393 0 0 1 5-4.5l2 2c2.281-2.728 5.281-3.728 9-3-.127-2.745 1.04-4.745 3.5-6a42.36 42.36 0 0 1 1.5-8.5c-4.396.46-7.896 2.627-10.5 6.5-2.295-2.243-5.129-3.577-8.5-4a48.165 48.165 0 0 1 5-2.5c-2.619-.151-4.953-.985-7-2.5 2.566-3.508 2.066-3.841-1.5-1-.538-1.973.296-2.973 2.5-3l8 2a42.162 42.162 0 0 1 15-6c.282 2.487.282 5.153 0 8 1.624-.14 2.79.527 3.5 2 .9-1.27 2.066-2.27 3.5-3-1.545-.952-3.212-1.285-5-1a4.934 4.934 0 0 1 .5-3c2.178 2.968 3.344 2.635 3.5-1 1.175.219 2.175-.114 3-1-1.434-.73-2.6-1.73-3.5-3-1.183 1.231-2.349 1.231-3.5 0 2.455-.925 3.622-2.258 3.5-4a50.162 50.162 0 0 1 7 4l1-3c.667 1.333 1.333 1.333 2 0 1.862 1.861 1.362 3.194-1.5 4l.5 1c2.685-.327 5.518-.327 8.5 0a8.43 8.43 0 0 0-.5-4c-1.049 1.607-2.549 2.273-4.5 2a12.93 12.93 0 0 1 .5-5l2 2c1.756-1.048 3.59-1.048 5.5 0 1.147-.318 1.981-.984 2.5-2 1.751.674 3.417 1.007 5 1a51.064 51.064 0 0 1 5.5-4c1.034 2.557.034 3.891-3 4 .214 1.644-.12 3.144-1 4.5a8.905 8.905 0 0 0-4 3 8.43 8.43 0 0 1-4 .5c-.285 1.788.048 3.455 1 5 1.542-1.247 3.042-1.247 4.5 0 1.044-1.123 1.71-2.456 2-4 1.718 1.702 1.885 3.535.5 5.5a54.628 54.628 0 0 1-7 2c2.912 2.363 2.578 3.863-1 4.5-6.993 1.996-13.993 3.996-21 6 .17 1.322-.163 2.489-1 3.5a249.532 249.532 0 0 0-9 3.5c-2.339 4.093-5.505 7.426-9.5 10 .107 3.057-1.06 5.391-3.5 7a3.647 3.647 0 0 0 1 1.5 20.528 20.528 0 0 0-3 4.5c-1.47 6.064-2.47 12.064-3 18a682.88 682.88 0 0 0 6.5 32c3.949 8.676 9.116 16.676 15.5 24 1.189.929 2.522 1.262 4 1v4c3.282 1.975 6.949 3.308 11 4 1.647.778 2.98 1.944 4 3.5 13.789 2.983 27.456 2.983 41 0a6.978 6.978 0 0 0 3.5-2.5 4.457 4.457 0 0 0 1.5 2 75.451 75.451 0 0 0 18-11 300.549 300.549 0 0 0 5-8c1.459.067 2.792-.266 4-1 .835 1.443 2.168 2.443 4 3-.991 1.623-.324 2.623 2 3a21.614 21.614 0 0 0 4-5 28.883 28.883 0 0 1 3.5 6c.667 1.333 1.333 1.333 2 0-.473 1.973-1.307 3.973-2.5 6a29.144 29.144 0 0 0-2.5-5 11.38 11.38 0 0 0-2.5 2 25.513 25.513 0 0 0 4 4.5c-1.473.71-2.14 1.876-2 3.5h6c-.384 3.269-1.718 6.103-4 8.5.837 1.011 1.17 2.178 1 3.5-1.322.17-2.489-.163-3.5-1a7.248 7.248 0 0 1-2.5 2c-2.401-2.913-3.734-2.579-4 1h-4v-3c1.846.278 3.18-.389 4-2a22.625 22.625 0 0 1-8.5-5c-1.059.13-1.892.63-2.5 1.5 5.601 2.9 5.268 4.734-1 5.5-.324-4.945-1.324-4.779-3 .5-.172 2.228.328 4.394 1.5 6.5-5.871 3.79-12.371 5.29-19.5 4.5.117-2.43.784-4.93 2-7.5a31.774 31.774 0 0 0 7-2.5l-1.5-1.5a15.096 15.096 0 0 0-6 3c-1.362-2.33-3.528-3.33-6.5-3a29.637 29.637 0 0 1-4 13c.825.886 1.825 1.219 3 1 .072-4.036 1.739-4.87 5-2.5-3.759 1.001-5.426 3.501-5 7.5h-3c-1.146 3.328-1.313 6.661-.5 10-1.183 1.231-2.349 1.231-3.5 0 1.353-1.024 2.02-2.357 2-4-3.023.395-4.023-.605-3-3-2.137-1.238-3.471-3.071-4-5.5a8.43 8.43 0 0 0-4-.5c.928-3.247 1.262-6.413 1-9.5-2.396-.866-3.063-.366-2 1.5a63.724 63.724 0 0 0-4.5 10c-.718.951-1.551 1.117-2.5.5 1.104-1.131.771-1.965-1-2.5-1.922 1.46-2.589 3.127-2 5a10.258 10.258 0 0 1-4 1.5c2.41.758 3.41 2.425 3 5a48.801 48.801 0 0 0-2 8.5c-1.624-.14-2.79.527-3.5 2l-1-2c-.808 2.079-.641 4.079.5 6a3.647 3.647 0 0 0 1.5-1c.239 2.459-.261 4.793-1.5 7a38.286 38.286 0 0 1-13 4c.219 1.175-.114 2.175-1 3a26.433 26.433 0 0 0-6.5 3 3.943 3.943 0 0 1-2-1 46.447 46.447 0 0 1-9.5 6.5 26.585 26.585 0 0 1-2 3.5c-2.12-1.372-3.12-.705-3 2h-4a4.934 4.934 0 0 1-.5 3c-2.778-1.185-4.278-.185-4.5 3-5.341.006-9.007 2.506-11 7.5-3.325-.225-5.658 1.108-7 4-3.872.71-6.205 2.877-7 6.5a48.364 48.364 0 0 0-9 2.5c-1.674 1.506-2.674 3.339-3 5.5a4.934 4.934 0 0 0-3 .5c-2.482 3.33-5.816 4.83-10 4.5.17 1.322-.163 2.489-1 3.5-1.829.273-3.329 1.107-4.5 2.5l-1-1c-1.993 2.885-4.66 4.885-8 6l-1-1c-4.019 4.225-8.852 6.059-14.5 5.5a4.457 4.457 0 0 1 2 1.5c-4.151 3.043-8.818 4.876-14 5.5a16.635 16.635 0 0 1-6 5c-1.284.684-2.451.517-3.5-.5-1.352 1.932-3.185 3.266-5.5 4a28.043 28.043 0 0 0-1.5 5 20.2 20.2 0 0 0-1.5-6 80.45 80.45 0 0 1-14 6 7.248 7.248 0 0 1-2.5-2c-1.434 1.636-3.267 2.636-5.5 3a6.802 6.802 0 0 0-1.5 3c-1-1.333-2-1.333-3 0l-2-2c-2.851 1.845-6.018 3.011-9.5 3.5a9.454 9.454 0 0 0-1.5 2.5 3.943 3.943 0 0 0-2-1 151.332 151.332 0 0 0-18 6l-1-1a6.802 6.802 0 0 1-1.5 3c-2.227-.553-4.561-.553-7 0v3a32.462 32.462 0 0 0-8 .5c-.876 1.585-2.209 2.585-4 3-.833 2.167-2.333 3.667-4.5 4.5a18.453 18.453 0 0 0-.5 6c.085 1.495-.581 2.495-2 3-1.467-1.195-2.967-1.195-4.5 0-.945-.405-1.612-1.072-2-2l-1 3c-1.011-.837-2.178-1.17-3.5-1-.02-1.643.647-2.976 2-4a6.802 6.802 0 0 0-3-1.5 15.454 15.454 0 0 1 5-3 853.383 853.383 0 0 0-4-10c1.959-2.686 2.292-5.519 1-8.5.691-2.391 1.691-2.391 3 0l1-1.5a146.825 146.825 0 0 0-4-5 71.306 71.306 0 0 0 8.5-4.5c1.14-3.028.306-5.195-2.5-6.5 2.511-2.105 4.844-1.938 7 .5a6.846 6.846 0 0 1 4-1v-3a116.753 116.753 0 0 0 15-3c-.203-1.89.463-3.39 2-4.5-1.694-2.624-2.36-5.29-2-8 .84-1.767 2.173-3.101 4-4a32.444 32.444 0 0 1-6-1.5c-.886-.825-1.219-1.825-1-3-2.765.298-5.265 1.298-7.5 3l1 5c-1.669-2.221-3.669-2.555-6-1a11.493 11.493 0 0 1-4-4c-1.596 2.436-3.429 2.936-5.5 1.5l3-1c-.265-1.719-.765-3.552-1.5-5.5 1.583 2.493 3.083 2.326 4.5-.5a23.663 23.663 0 0 1-6-2.5c-1.867 2.729-2.867 2.396-3-1h3c.151-4.857-1.516-5.857-5-3-.886-.825-1.219-1.825-1-3a25.945 25.945 0 0 1 11 3l4-1a58.095 58.095 0 0 0 6.5 3 243.21 243.21 0 0 0 10.5-3l4 2c2.456-2.58 4.956-2.58 7.5 0a133.394 133.394 0 0 1 7.5-4c1.967 1.182 3.3.515 4-2 .793.431 1.627.765 2.5 1a135.875 135.875 0 0 0 14.5-7.5 24.935 24.935 0 0 1 7-.5v-3h3a564.997 564.997 0 0 1 11-19.5c-.69-1.921-1.024-3.755-1-5.5a9.258 9.258 0 0 0 2-2.5 57.56 57.56 0 0 0-3-8c.235-.873.569-1.707 1-2.5a26.932 26.932 0 0 1-5-8l1-2c-2.469-1.105-4.136-2.938-5-5.5a66.598 66.598 0 0 0-11-2.5 113.664 113.664 0 0 0-25 8v3h-3c.12 2.705-.88 3.372-3 2a294.083 294.083 0 0 1-11 6.5 72.367 72.367 0 0 1-12 .5c-.974-3.136-3.141-5.136-6.5-6a153.172 153.172 0 0 1-4.5-9.5 3.647 3.647 0 0 0 1-1.5c-2.992-3.901-3.325-7.901-1-12-1.02-1.932-1.187-3.932-.5-6 5.193-9.055 12.859-12.721 23-11l3-2a104.377 104.377 0 0 0 11 4 39.502 39.502 0 0 0 8.5-5c4.194-5.048 6.861-10.882 8-17.5a62.08 62.08 0 0 1-4-12.5c-4.294-1.298-7.294-3.965-9-8a6.846 6.846 0 0 1-4-1c-2.905-3.637-6.572-4.97-11-4a4.457 4.457 0 0 1-1.5-2c-5.533-.499-11.033.167-16.5 2v-4c4.66-.332 7.494-2.332 8.5-6a67.88 67.88 0 0 1 9.5 3 27.395 27.395 0 0 0 3.5-1 101.097 101.097 0 0 1 8.5 4c-.17-1.322.163-2.489 1-3.5-1.036-1.617-2.203-1.784-3.5-.5-.713-2.975.121-5.475 2.5-7.5a4.934 4.934 0 0 0-3-.5c.214-1.644-.12-3.144-1-4.5 1.803-.637 3.136-1.803 4-3.5 1.094 1.368.76 2.535-1 3.5l1.5 1.5c2.497-3.851 1.663-6.684-2.5-8.5 1.612-.72 3.112-.554 4.5.5 1.487-.753 1.654-1.586.5-2.5-4.833-.883-9.5-.383-14 1.5l4 2-1.5 1c-3.438-.271-6.938.062-10.5 1 .061 2.55 1.394 4.05 4 4.5a56.64 56.64 0 0 1-7 2.5l-1-1.5c2.646-2.04 2.646-4.04 0-6 3.187-2.102 6.187-3.768 9-5l-1-1.5c-1.109 1.09-2.109 1.09-3 0 1.486-1.802 2.486-3.802 3-6h3v3c4.503.832 8.836.832 13 0-.228-1.855.439-2.688 2-2.5-2.595 7.124-1.928 7.291 2 .5l2 3 1-.5c-1.247-1.458-1.247-2.958 0-4.5a58.961 58.961 0 0 1 6-5c-1.978.65-4.145.65-6.5 0-2.393 2.494-3.56 1.827-3.5-2-1.643.02-2.976-.647-4-2a7.248 7.248 0 0 0-2.5 2c-2.951-2.695-5.618-2.362-8 1-2.266-1.456-4.766-2.29-7.5-2.5 3.49-.89 6.657-2.39 9.5-4.5 1.751.674 3.417 1.007 5 1a7.248 7.248 0 0 1 2.5-2l3 4c.169-.897.502-1.897 1-3a4.457 4.457 0 0 1 1.5 2c1.281.119 2.448-.381 3.5-1.5a14.748 14.748 0 0 1-3-4.5c-1.123 1.789-2.456 2.122-4 1 1.897-1.168 2.064-2.835.5-5-.743 2.145-1.576 2.311-2.5.5a32.298 32.298 0 0 1 5-4.5c-.346-1.196-.846-1.196-1.5 0a24.362 24.362 0 0 1-1.5-10h3v4h4c.219-1.175-.114-2.175-1-3-3.077-2.926-6.41-3.926-10-3 .73-1.212 1.73-2.212 3-3 3.303-.94 6.636-1.773 10-2.5 4.252-5.573 9.918-8.073 17-7.5a34.534 34.534 0 0 1 6-5.5 36.224 36.224 0 0 0 11-4c3.336-4.093 2.669-7.26-2-9.5a41.851 41.851 0 0 0-7-1 117.813 117.813 0 0 1-15 2.5c-1.734 2.057-3.734 2.557-6 1.5a604.676 604.676 0 0 0-3.5 3 9.258 9.258 0 0 1-2.5-2 26.585 26.585 0 0 0-2 3.5 20.431 20.431 0 0 0-5.5 1.5l-1-1a7.293 7.293 0 0 1-2 3c-1.049-1.017-2.216-1.184-3.5-.5a1029.93 1029.93 0 0 0-24 9.5c-1.41.368-2.41 1.201-3 2.5a1903.368 1903.368 0 0 1-43 14.5v3a31.881 31.881 0 0 0-8.5 1 197.776 197.776 0 0 1-26.5 13.5 103.116 103.116 0 0 1-13 4c-2.342 2.786-5.342 4.453-9 5a65.881 65.881 0 0 1-8 7 4.934 4.934 0 0 1-3 .5c.002 2.331-.831 4.331-2.5 6-1.011.837-2.178 1.17-3.5 1-.273 4.571-1.273 8.905-3 13 .825.886 1.825 1.219 3 1 .602 3.777 2.602 6.61 6 8.5 2.719.528 5.219.028 7.5-1.5a31.881 31.881 0 0 0 8.5 1c-4.824.635-8.491 3.135-11 7.5 1.504 1.491 2.337 3.324 2.5 5.5l1-5c-.064 4.117 1.103 7.783 3.5 11l-7 4c-1.505-2.631-2.171-2.297-2 1 4.588.381 4.922 1.547 1 3.5 4.279 1.784 4.946 4.45 2 8l1.5 1.5c1.897-1.516 4.064-2.183 6.5-2-.201 3.85-2.034 4.85-5.5 3-3.16 1.583-2.993 3.083.5 4.5l-1 1c-.62-1.255-2.287-1.588-5-1l1 1c-2.854 2.078-3.188 4.245-1 6.5-1.695.792-3.362.458-5-1a3.647 3.647 0 0 1 1-1.5 22.732 22.732 0 0 0-4.5-6.5l-.5 1.5c1.625 3.451.958 4.117-2 2 .457-.414.79-.914 1-1.5a19.933 19.933 0 0 1-3-4.5c.147-1.727.813-1.894 2-.5a15.686 15.686 0 0 0 2-4c-1.333-1-1.333-2 0-3a10.256 10.256 0 0 0-4-1.5c.477-2.899 1.477-5.566 3-8-3.726-1.043-3.393-1.543 1-1.5.112 4.029 1.279 7.695 3.5 11 .87-.608 1.37-1.441 1.5-2.5-2.259-2.917-2.926-6.084-2-9.5a7.248 7.248 0 0 1 2.5 2 15.265 15.265 0 0 1 5.5-3c-1.211-1.22-1.211-2.387 0-3.5a9.454 9.454 0 0 1-2.5-1.5 54.416 54.416 0 0 0-5.5-12c-.896-1.006-1.562-1.006-2 0 1.706 4.123.706 5.29-3 3.5 1.117-3.073 1.284-6.24.5-9.5-1.057 3.059-2.89 5.559-5.5 7.5-.924 1.15-.924 2.15 0 3-6.538 1.876-11.871-.124-16-6 2.206-.732 3.872-.065 5 2 2.688.392 5.355.892 8 1.5l2-1c-2.73-.689-5.064-2.022-7-4 .747-.236 1.58-.57 2.5-1a10.255 10.255 0 0 1 1.5-4c1.395 1.315 2.395.981 3-1l-3-4c1.76-1.254 3.26-.921 4.5 1a4.451 4.451 0 0 0 1.5-2 66.738 66.738 0 0 1-5-3.5c-2.074.227-4.074.061-6-.5-1-1.667-2.333-3-4-4l2-1c11.394 2.472 11.727 1.472 1-3-1.635.546-3.301.88-5 1v-3c.481-2.138 1.648-3.805 3.5-5a8.435 8.435 0 0 0 .5-4 4.934 4.934 0 0 0 3-.5 101.549 101.549 0 0 0 16-13.5c4.748-.682 8.748-2.682 12-6 4.473-1.113 8.473-3.113 12-6a3.647 3.647 0 0 1 1.5 1c2.172-1.009 3.338-2.676 3.5-5a30.465 30.465 0 0 0 9-1.5 89.65 89.65 0 0 1 12-5.5 3.647 3.647 0 0 1 1.5 1 274.262 274.262 0 0 1 4-4c8.328-1.082 15.828-3.916 22.5-8.5 3.325-.139 6.325-1.139 9-3 2.599-.769 5.099-.602 7.5.5a35.478 35.478 0 0 1 6.5-4 224.804 224.804 0 0 0 19-7l2 1c3.993-2.22 8.326-3.386 13-3.5l7-5.5a3.647 3.647 0 0 1 1.5 1 55.784 55.784 0 0 0 9.5-5c1.394.121 2.728.454 4 1a482.532 482.532 0 0 0 19-9l2 1c1.024-1.353 2.357-2.02 4-2v-3a64.452 64.452 0 0 0 13-3 385.937 385.937 0 0 1 46-18Z"/><path style="opacity:1" fill="#bee5f9" d="M246.5 263.5a253.26 253.26 0 0 0-32 14.5l-2 3c-2.119.098-3.786.931-5 2.5-3.234.541-6.067 1.874-8.5 4-4.682 2.078-9.182 5.245-13.5 9.5a20.2 20.2 0 0 0-6 1.5 56.213 56.213 0 0 0-10 8c-6.422 2.02-12.089 5.187-17 9.5-4.376-.385-7.709 1.281-10 5a162.991 162.991 0 0 0-21 10.5 31.881 31.881 0 0 1-8.5-1c-2.281 1.528-4.781 2.028-7.5 1.5-3.398-1.89-5.398-4.723-6-8.5-1.175.219-2.175-.114-3-1 1.727-4.095 2.727-8.429 3-13 1.322.17 2.489-.163 3.5-1 1.669-1.669 2.502-3.669 2.5-6a4.934 4.934 0 0 0 3-.5 65.881 65.881 0 0 0 8-7c3.658-.547 6.658-2.214 9-5 4.43-1.05 8.763-2.383 13-4a197.776 197.776 0 0 0 26.5-13.5 31.881 31.881 0 0 1 8.5-1v-3a1903.368 1903.368 0 0 0 43-14.5c.59-1.299 1.59-2.132 3-2.5a1029.93 1029.93 0 0 1 24-9.5c1.284-.684 2.451-.517 3.5.5a7.293 7.293 0 0 0 2-3l1 1a20.431 20.431 0 0 1 5.5-1.5 26.585 26.585 0 0 1 2-3.5 9.258 9.258 0 0 0 2.5 2 604.676 604.676 0 0 1 3.5-3c2.266 1.057 4.266.557 6-1.5a117.813 117.813 0 0 0 15-2.5c2.365.136 4.698.47 7 1 4.669 2.24 5.336 5.407 2 9.5a36.224 36.224 0 0 1-11 4 34.534 34.534 0 0 0-6 5.5c-7.082-.573-12.748 1.927-17 7.5-3.364.727-6.697 1.56-10 2.5-1.27.788-2.27 1.788-3 3Z"/><path style="opacity:.102" fill="#2b0d02" d="M88.5 252.5c.11.617.444 1.117 1 1.5-1.25.74-2.25.573-3-.5l2-1Z"/><path style="opacity:1" fill="#fdfefe" d="M463.5 254.5c2.865 1.283 5.865 1.283 9 0 9.923 1.373 18.923 5.206 27 11.5a12.93 12.93 0 0 0 5 .5c.085 2.429 1.085 4.429 3 6a41.684 41.684 0 0 1 11 7.5l-2 2c2.899 2.539 4.566 5.706 5 9.5h3a62.215 62.215 0 0 0 4 18 12.906 12.906 0 0 1-1 4c3.031 2.737 3.698 6.071 2 10-.052 3.241.615 6.241 2 9-2.475 7.798-3.475 15.798-3 24-1.208.734-2.541 1.067-4 1a300.549 300.549 0 0 1-5 8 75.451 75.451 0 0 1-18 11 4.457 4.457 0 0 1-1.5-2 6.978 6.978 0 0 1-3.5 2.5c-13.544 2.983-27.211 2.983-41 0-1.02-1.556-2.353-2.722-4-3.5-4.051-.692-7.718-2.025-11-4v-4c-1.478.262-2.811-.071-4-1-6.384-7.324-11.551-15.324-15.5-24a682.88 682.88 0 0 1-6.5-32c.53-5.936 1.53-11.936 3-18a20.528 20.528 0 0 1 3-4.5 3.647 3.647 0 0 1-1-1.5c2.44-1.609 3.607-3.943 3.5-7 3.995-2.574 7.161-5.907 9.5-10a249.532 249.532 0 0 1 9-3.5c.837-1.011 1.17-2.178 1-3.5 7.007-2.004 14.007-4.004 21-6Z"/><path style="opacity:.192" fill="#100" d="M85.5 254.5c-.321 1.548-1.321 2.215-3 2a2.427 2.427 0 0 1 .5-2c.77 1.098 1.603 1.098 2.5 0Z"/><path style="opacity:.184" fill="#110600" d="M718.5 258.5h1c0 1.333.667 2 2 2v1c-.996-.086-1.829.248-2.5 1a8.43 8.43 0 0 1-.5-4Z"/><path style="opacity:.133" fill="#50c3ff" d="M721.5 260.5c-1.333 0-2-.667-2-2 .06-.543.393-.876 1-1 .886.825 1.219 1.825 1 3Z"/><path style="opacity:.035" d="M726.5 271.5c1.333 1.333 1.333 2.667 0 4-.426-1.028-.426-2.361 0-4Z"/><path style="opacity:1" fill="#fdfefe" d="M337.5 304.5c9.653.572 19.32 1.738 29 3.5a94.08 94.08 0 0 1 10 4c2.262 2.931 5.095 5.097 8.5 6.5.483.948.649 1.948.5 3 6.73.064 9.396 3.398 8 10 1.322-.17 2.489.163 3.5 1 1.915 5.502 4.582 10.502 8 15a127.347 127.347 0 0 1 5.5 30.5 401.77 401.77 0 0 1-5 17.5c.431.793.765 1.627 1 2.5a59.885 59.885 0 0 0-6 9.5c-.825.886-1.825 1.219-3 1a22.375 22.375 0 0 1-3 6.5c-2.952 1.545-5.619 3.379-8 5.5a18.404 18.404 0 0 1-7 2v3c-3.663.452-7.33.952-11 1.5-1.509 1.924-3.509 3.091-6 3.5a7.248 7.248 0 0 1-2.5-2c-1.822 1.545-3.989 2.212-6.5 2-8.36-1.42-16.36-3.753-24-7v-3c-5.525.526-8.858-1.807-10-7a51.569 51.569 0 0 1-7-1 12.93 12.93 0 0 0-.5-5 13.24 13.24 0 0 1-5-3 35.323 35.323 0 0 1-4.5-9.5c1.134-1.016.801-1.683-1-2 1.101-2.292.268-3.792-2.5-4.5a3711.722 3711.722 0 0 0-6.5-21 575.836 575.836 0 0 1 2-37c1.89.203 3.39-.463 4.5-2 1.92-6.52 6.087-10.687 12.5-12.5 3.305-3.981 7.638-5.815 13-5.5v-3a31.116 31.116 0 0 0 11-1 31.147 31.147 0 0 0 2-2Z"/><path style="opacity:.027" fill="#76400b" d="M739.5 306.5c.845 1.171 1.511 2.505 2 4-1.676-.683-2.343-2.017-2-4Z"/><path style="opacity:1" fill="#87cef2" d="M470.5 292.5c2.044.531 3.711 1.698 5 3.5 2.346-.792 4.679-.625 7 .5.246 2.97 1.912 4.303 5 4a287.519 287.519 0 0 1 6 25 130.868 130.868 0 0 0-3.5 11c-2.628 2.563-5.795 3.896-9.5 4a48.77 48.77 0 0 0-11-5c-1.543-2.89-3.876-4.557-7-5a59.44 59.44 0 0 0-3.5-10 219.86 219.86 0 0 0-1.5-12c-.063-1.981.604-3.648 2-5a11.456 11.456 0 0 1-1-2.5c2.059-1.498 3.392-3.498 4-6a127.96 127.96 0 0 0 8-2.5Z"/><path style="opacity:1" fill="#82ccf2" d="M219.5 338.5a22.073 22.073 0 0 0-9 4c-1.714-1.109-2.381-.442-2 2-3.622-1.127-6.288.206-8 4-1.189.929-2.522 1.262-4 1-.259 3.568-2.259 4.901-6 4v4h-4a8.43 8.43 0 0 1-.5 4c-1.667 3.838-4.167 7.005-7.5 9.5-1.082 3.929-2.916 7.429-5.5 10.5.051 3.441-1.115 6.274-3.5 8.5 1.33 2.877 1.164 5.711-.5 8.5a153.196 153.196 0 0 0 2 39 1807.523 1807.523 0 0 0 11.5 24c3.41-.116 4.744 1.55 4 5a4.934 4.934 0 0 1 3 .5c5.088 4.43 10.421 8.264 16 11.5-.219 1.175.114 2.175 1 3 3.484-2.857 5.151-1.857 5 3h-3c.133 3.396 1.133 3.729 3 1a23.663 23.663 0 0 0 6 2.5c-1.417 2.826-2.917 2.993-4.5.5.735 1.948 1.235 3.781 1.5 5.5l-3 1c2.071 1.436 3.904.936 5.5-1.5a11.493 11.493 0 0 0 4 4c2.331-1.555 4.331-1.221 6 1l-1-5c2.235-1.702 4.735-2.702 7.5-3-.219 1.175.114 2.175 1 3a32.444 32.444 0 0 0 6 1.5c-1.827.899-3.16 2.233-4 4-.36 2.71.306 5.376 2 8-1.537 1.11-2.203 2.61-2 4.5a116.753 116.753 0 0 1-15 3v3a6.846 6.846 0 0 0-4 1c-2.156-2.438-4.489-2.605-7-.5 2.806 1.305 3.64 3.472 2.5 6.5a71.306 71.306 0 0 1-8.5 4.5 146.825 146.825 0 0 1 4 5l-1 1.5c-1.309-2.391-2.309-2.391-3 0 1.292 2.981.959 5.814-1 8.5a853.383 853.383 0 0 1 4 10 15.454 15.454 0 0 0-5 3 6.802 6.802 0 0 1 3 1.5c-1.353 1.024-2.02 2.357-2 4 1.322-.17 2.489.163 3.5 1l1-3c.388.928 1.055 1.595 2 2 1.533-1.195 3.033-1.195 4.5 0 1.419-.505 2.085-1.505 2-3 .116 3.775 2.116 5.442 6 5v3a19.372 19.372 0 0 0-8 1 14.84 14.84 0 0 1-3.5-4c-1 1.333-2 1.333-3 0a6.802 6.802 0 0 1-1.5 3l-5-2.5 1-1c-2.512-3.333-3.845-6.833-4-10.5-3.079.608-6.079-.059-9-2-5.16 2.58-5.16 4.913 0 7 1.147-.318 1.981-.984 2.5-2a26.67 26.67 0 0 0 6.5 1.5 6.802 6.802 0 0 0-3 1.5 10.91 10.91 0 0 0 5 4.5c-3.251 2.437-3.584 5.104-1 8a2187.73 2187.73 0 0 1-4 5c2.535 2.458 2.535 4.958 0 7.5-3.585-1.213-4.751.12-3.5 4 .603-3.406 1.769-3.739 3.5-1 3.654.879 7.321 1.713 11 2.5a23.65 23.65 0 0 0-3 3.5c-1.391-1.145-2.724-1.145-4 0 1.101 1.894 2.434 2.561 4 2-3.721 1.686-6.887 1.019-9.5-2-.456-1.244.044-2.077 1.5-2.5-1.249-1.824-2.415-1.657-3.5.5-.388-.928-1.055-1.595-2-2l-4.5 3a15.855 15.855 0 0 0 6 5.5c-.638 1.707-.638 3.54 0 5.5-2.952-1.848-4.952-4.515-6-8a88.943 88.943 0 0 1-12.5-16c-.915-5.362-2.582-10.362-5-15a12.472 12.472 0 0 0-4-5 130.406 130.406 0 0 0-1.5-7 161.972 161.972 0 0 1-11-24.5c.235-.873.569-1.707 1-2.5a36.666 36.666 0 0 1-9.5-13c-.687-2.068-.52-4.068.5-6-.897-3.065-2.897-4.898-6-5.5a4.933 4.933 0 0 0 1-2.5 125.723 125.723 0 0 0-5.5-14 18.453 18.453 0 0 1-.5-6h-3c-.325-5.339-2.159-10.006-5.5-14a1991.69 1991.69 0 0 1-23.5-55.5c-1.095-8.723-4.095-16.889-9-24.5a32.438 32.438 0 0 0-.5-8c-.71-1.473-1.876-2.14-3.5-2a207.136 207.136 0 0 1-5-22h-3c.344-3.12-.323-5.953-2-8.5a11.47 11.47 0 0 1 1-2.5 120.806 120.806 0 0 1-6-19.5c.03-3.38.03-6.713 0-10a63.265 63.265 0 0 1 5-7.5v3a20.223 20.223 0 0 0 5-1c10.727 4.472 10.394 5.472-1 3l-2 1c1.667 1 3 2.333 4 4 1.926.561 3.926.727 6 .5a66.738 66.738 0 0 0 5 3.5 4.451 4.451 0 0 1-1.5 2c-1.24-1.921-2.74-2.254-4.5-1l3 4c-.605 1.981-1.605 2.315-3 1a10.255 10.255 0 0 0-1.5 4c-.92.43-1.753.764-2.5 1 1.936 1.978 4.27 3.311 7 4l-2 1a100.36 100.36 0 0 0-8-1.5c-1.128-2.065-2.794-2.732-5-2 4.129 5.876 9.462 7.876 16 6-.924-.85-.924-1.85 0-3 2.61-1.941 4.443-4.441 5.5-7.5.784 3.26.617 6.427-.5 9.5 3.706 1.79 4.706.623 3-3.5.438-1.006 1.104-1.006 2 0a54.416 54.416 0 0 1 5.5 12 9.454 9.454 0 0 0 2.5 1.5c-1.211 1.113-1.211 2.28 0 3.5a15.265 15.265 0 0 0-5.5 3 7.248 7.248 0 0 0-2.5-2c-.926 3.416-.259 6.583 2 9.5-.13 1.059-.63 1.892-1.5 2.5-2.221-3.305-3.388-6.971-3.5-11-4.393-.043-4.726.457-1 1.5-1.523 2.434-2.523 5.101-3 8 1.438.219 2.771.719 4 1.5-1.333 1-1.333 2 0 3a15.686 15.686 0 0 1-2 4c-1.187-1.394-1.853-1.227-2 .5a19.933 19.933 0 0 0 3 4.5 3.646 3.646 0 0 1-1 1.5c2.958 2.117 3.625 1.451 2-2l.5-1.5a22.732 22.732 0 0 1 4.5 6.5 3.647 3.647 0 0 0-1 1.5c1.638 1.458 3.305 1.792 5 1-2.188-2.255-1.854-4.422 1-6.5l-1-1c2.713-.588 4.38-.255 5 1l1-1c-3.493-1.417-3.66-2.917-.5-4.5 3.466 1.85 5.299.85 5.5-3-2.436-.183-4.603.484-6.5 2l-1.5-1.5c2.946-3.55 2.279-6.216-2-8 3.922-1.953 3.588-3.119-1-3.5-.171-3.297.495-3.631 2-1l7-4c-2.397-3.217-3.564-6.883-3.5-11l-1 5c-.163-2.176-.996-4.009-2.5-5.5 2.509-4.365 6.176-6.865 11-7.5a162.991 162.991 0 0 1 21-10.5c2.291-3.719 5.624-5.385 10-5 4.911-4.313 10.578-7.48 17-9.5a56.213 56.213 0 0 1 10-8 20.2 20.2 0 0 1 6-1.5c4.318-4.255 8.818-7.422 13.5-9.5 2.433-2.126 5.266-3.459 8.5-4 1.214-1.569 2.881-2.402 5-2.5l2-3a253.26 253.26 0 0 1 32-14.5c3.59-.926 6.923.074 10 3 .886.825 1.219 1.825 1 3h-4v-4h-3a24.362 24.362 0 0 0 1.5 10c.654-1.196 1.154-1.196 1.5 0a32.298 32.298 0 0 0-5 4.5c.924 1.811 1.757 1.645 2.5-.5 1.564 2.165 1.397 3.832-.5 5 1.544 1.122 2.877.789 4-1a14.748 14.748 0 0 0 3 4.5c-1.052 1.119-2.219 1.619-3.5 1.5a4.457 4.457 0 0 0-1.5-2c-.498 1.103-.831 2.103-1 3l-3-4a7.248 7.248 0 0 0-2.5 2c-1.583.007-3.249-.326-5-1-2.843 2.11-6.01 3.61-9.5 4.5 2.734.21 5.234 1.044 7.5 2.5 2.382-3.362 5.049-3.695 8-1a7.248 7.248 0 0 1 2.5-2c1.024 1.353 2.357 2.02 4 2-.06 3.827 1.107 4.494 3.5 2 2.355.65 4.522.65 6.5 0a58.961 58.961 0 0 0-6 5c-1.247 1.542-1.247 3.042 0 4.5l-1 .5-2-3c-3.928 6.791-4.595 6.624-2-.5-1.561-.188-2.228.645-2 2.5-4.164.832-8.497.832-13 0v-3h-3c-.514 2.198-1.514 4.198-3 6 .891 1.09 1.891 1.09 3 0l1 1.5c-2.813 1.232-5.813 2.898-9 5 2.646 1.96 2.646 3.96 0 6l1 1.5a56.64 56.64 0 0 0 7-2.5c-2.606-.45-3.939-1.95-4-4.5 3.562-.938 7.062-1.271 10.5-1l1.5-1-4-2c4.5-1.883 9.167-2.383 14-1.5 1.154.914.987 1.747-.5 2.5-1.388-1.054-2.888-1.22-4.5-.5 4.163 1.816 4.997 4.649 2.5 8.5l-1.5-1.5c1.76-.965 2.094-2.132 1-3.5-.864 1.697-2.197 2.863-4 3.5.88 1.356 1.214 2.856 1 4.5a4.934 4.934 0 0 1 3 .5c-2.379 2.025-3.213 4.525-2.5 7.5 1.297-1.284 2.464-1.117 3.5.5-.837 1.011-1.17 2.178-1 3.5a101.097 101.097 0 0 0-8.5-4 27.395 27.395 0 0 1-3.5 1 67.88 67.88 0 0 0-9.5-3c-1.006 3.668-3.84 5.668-8.5 6v4Z"/><path style="opacity:.02" fill="#1a0600" d="M745.5 326.5c1.873 1.396 2.206 3.063 1 5-.951-1.419-1.284-3.085-1-5Z"/><path style="opacity:1" fill="#fdfefe" d="M205.5 478.5c-5.579-3.236-10.912-7.07-16-11.5a4.934 4.934 0 0 0-3-.5c.744-3.45-.59-5.116-4-5a1807.523 1807.523 0 0 1-11.5-24 153.196 153.196 0 0 1-2-39c1.664-2.789 1.83-5.623.5-8.5 2.385-2.226 3.551-5.059 3.5-8.5 2.584-3.071 4.418-6.571 5.5-10.5 3.333-2.495 5.833-5.662 7.5-9.5a8.43 8.43 0 0 0 .5-4h4v-4c3.741.901 5.741-.432 6-4 1.478.262 2.811-.071 4-1 1.712-3.794 4.378-5.127 8-4-.381-2.442.286-3.109 2-2a22.073 22.073 0 0 1 9-4c5.467-1.833 10.967-2.499 16.5-2a4.457 4.457 0 0 0 1.5 2c4.428-.97 8.095.363 11 4a6.846 6.846 0 0 0 4 1c1.706 4.035 4.706 6.702 9 8a62.08 62.08 0 0 0 4 12.5c-1.139 6.618-3.806 12.452-8 17.5a39.502 39.502 0 0 1-8.5 5 104.377 104.377 0 0 1-11-4l-3 2c-10.141-1.721-17.807 1.945-23 11-.687 2.068-.52 4.068.5 6-2.325 4.099-1.992 8.099 1 12a3.647 3.647 0 0 1-1 1.5 153.172 153.172 0 0 0 4.5 9.5c3.359.864 5.526 2.864 6.5 6a72.367 72.367 0 0 0 12-.5 294.083 294.083 0 0 0 11-6.5c2.12 1.372 3.12.705 3-2h3v-3a113.664 113.664 0 0 1 25-8 66.598 66.598 0 0 1 11 2.5c.864 2.562 2.531 4.395 5 5.5l-1 2a26.932 26.932 0 0 0 5 8 11.456 11.456 0 0 0-1 2.5 57.56 57.56 0 0 1 3 8 9.258 9.258 0 0 1-2 2.5c-.024 1.745.31 3.579 1 5.5a564.997 564.997 0 0 0-11 19.5h-3v3a24.935 24.935 0 0 0-7 .5 135.875 135.875 0 0 1-14.5 7.5 11.456 11.456 0 0 1-2.5-1c-.7 2.515-2.033 3.182-4 2a133.394 133.394 0 0 0-7.5 4c-2.544-2.58-5.044-2.58-7.5 0l-4-2a243.21 243.21 0 0 1-10.5 3 58.095 58.095 0 0 1-6.5-3l-4 1a25.945 25.945 0 0 0-11-3Z"/><path style="opacity:.263" fill="#140000" d="M42.5 339.5c.734 1.208 1.067 2.541 1 4-2.02-1.038-2.353-2.372-1-4Z"/><path style="opacity:.054" fill="#0a0000" d="M756.5 358.5c1.679-.215 2.679.452 3 2-1.21-.432-2.21-1.099-3-2Z"/><path style="opacity:.08" fill="#161a20" d="M760.5 366.5c.041 2.245.875 2.912 2.5 2 .74 1.249.573 2.249-.5 3-2.692-1.091-3.358-2.757-2-5Z"/><path style="opacity:.999" fill="#4eb0e4" d="M677.5 158.5c2.9 1.428 3.567 3.594 2 6.5 1.314.985 2.314 2.152 3 3.5-1.397 2.322-.73 3.989 2 5 3.264 6.512 5.931 12.846 8 19 .17 1.322-.163 2.489-1 3.5a2.428 2.428 0 0 0 2 .5c1.662 1.724 2.662 3.891 3 6.5a3.943 3.943 0 0 1-1 2c3.402 2.63 5.402 6.13 6 10.5.296 1.903.963 3.57 2 5 .802 1.452 1.302 3.118 1.5 5 2.148 1.305 3.648 3.138 4.5 5.5l-1 1a39.663 39.663 0 0 1 3.5 9.5c.667 1.333 1.333 1.333 2 0 1.309 2.186 1.476 4.353.5 6.5 3.789 2.835 5.123 6.335 4 10.5a8.43 8.43 0 0 0 .5 4c.671-.752 1.504-1.086 2.5-1l5 10c-.426 1.639-.426 2.972 0 4a62.308 62.308 0 0 1 4 6.5c-.336 4.329.998 8.329 4 12l-1 1a108.965 108.965 0 0 1 6 11.5c-.343 1.983.324 3.317 2 4a46.71 46.71 0 0 1 0 7.5l3 2.5a3.647 3.647 0 0 1-1 1.5c1.607 1.049 2.273 2.549 2 4.5-.284 1.915.049 3.581 1 5 .79 1.109 1.29 2.442 1.5 4 2.109.535 2.609 1.535 1.5 3l2 1a3.647 3.647 0 0 1-1 1.5 31.895 31.895 0 0 1 4.5 11.5 23.65 23.65 0 0 0 3.5 3 185.977 185.977 0 0 0-2 3c.79.901 1.79 1.568 3 2 .841 1.879 1.175 3.879 1 6-1.358 2.243-.692 3.909 2 5a83.587 83.587 0 0 0 5 11.5 37.9 37.9 0 0 1-1 6c1.532.7 2.532 1.866 3 3.5-1.211 1.22-1.211 2.387 0 3.5a7.293 7.293 0 0 1-3 2c1.078.674 1.745 1.674 2 3-1.129 2.362-1.129 4.695 0 7a29.82 29.82 0 0 0-3 8.5c-.901.79-1.568 1.79-2 3-.901.79-1.568 1.79-2 3l-1 2c-.671 1.347-.671 2.514 0 3.5-.808 1.706-2.141 2.539-4 2.5-.744 2.486-2.244 4.486-4.5 6-.317-1.801-.984-2.134-2-1a4.934 4.934 0 0 0-.5 3c-1.599-.268-2.932.066-4 1-1.333 0-2 .667-2 2-4.681 1.187-9.348 3.187-14 6-1.152-1.125-2.152-1.125-3 0-4.858 1.921-9.525 4.755-14 8.5a50.61 50.61 0 0 0-11.5 4.5l-1-1c-1.332.662-2.498 1.828-3.5 3.5-1.049.492-2.049.326-3-.5-1.56 1.929-3.56 3.262-6 4a3.647 3.647 0 0 1-1.5-1c-1.11 1.537-2.61 2.203-4.5 2-1.653.16-2.986.826-4 2-2.797 2.477-6.131 3.477-10 3-1.548.321-2.215 1.321-2 3-5.145 1.12-10.312 3.12-15.5 6a3.647 3.647 0 0 0-1.5-1 26.378 26.378 0 0 1-8 4c-1.291-.237-2.291.096-3 1-6.825 2.877-13.658 4.877-20.5 6a105.134 105.134 0 0 0-12 7c-.671-.752-1.504-1.086-2.5-1-1 .333-1.667 1-2 2-2.411-.363-3.911.637-4.5 3a4.457 4.457 0 0 0-1.5-2c-1.195 1.797-2.862 2.797-5 3-1.983-.343-3.317.324-4 2a32.8 32.8 0 0 0-7 3c-1.462-.971-2.795-.638-4 1-.722.418-1.222 1.084-1.5 2-.383-.556-.883-.889-1.5-1-1.446-1.113-3.113-1.28-5-.5-.752.671-1.086 1.504-1 2.5l-6 3c-.342-.838-1.008-1.172-2-1-.111-.617-.444-1.117-1-1.5 2.402-1.471 2.236-2.971-.5-4.5a4.934 4.934 0 0 0-.5 3c-2.097-.497-3.93-.83-5.5-1-.595-1.399-.428-2.732.5-4 4.439-1.17 4.772-2.67 1-4.5.498-1.158 1.331-1.991 2.5-2.5 2.199 1.145 4.365 1.145 6.5 0 1.333-1 1.333-2 0-3-.891-1.09-1.891-1.09-3 0a4.457 4.457 0 0 1-1.5-2c-.667 2-2 3.333-4 4l1-5c-2 1.333-4 1.333-6 0-1.188 1.063-1.688 2.397-1.5 4a30.334 30.334 0 0 1-10 .5c-2.044-.498-3.378-1.665-4-3.5a213.166 213.166 0 0 0 24.5-9c1.545 1.321 2.711.988 3.5-1a855.634 855.634 0 0 1 22.5-9c1.79-.785 3.457-.785 5 0a250.447 250.447 0 0 1 38.5-17.5 55.723 55.723 0 0 0 14-4.5 6.846 6.846 0 0 0 4 1v-4c9.27-1.257 17.604-4.757 25-10.5a32.444 32.444 0 0 0 6-1.5c2.557 1.32 4.224.487 5-2.5 1.284-.684 2.451-.517 3.5.5a156.537 156.537 0 0 0 13.5-7.5 24.935 24.935 0 0 1 7-.5v-3a5815.62 5815.62 0 0 1 12-4v-3h3v-3c1.175.219 2.175-.114 3-1a14.506 14.506 0 0 1 4-5 324.332 324.332 0 0 0 4-17.5c-.405-.945-1.072-1.612-2-2 1.394-.956 2.061-2.289 2-4-.696-9.103-3.03-17.603-7-25.5a271.97 271.97 0 0 0-4-18c-1.624.14-2.79-.527-3.5-2-2.289-5.692-3.622-11.692-4-18-1.011-.837-2.178-1.17-3.5-1-.92-2.381-.92-4.714 0-7l-4-2 1-2a481.202 481.202 0 0 0-9-23c.431-.793.765-1.627 1-2.5a88.557 88.557 0 0 1-7.5-13.5c.478-4.338-1.188-7.338-5-9 .32-2.96.32-5.96 0-9-6.77-8.579-11.27-18.412-13.5-29.5-1.158-3.341-2.991-6.174-5.5-8.5a69.72 69.72 0 0 0-3-12c-.833-1.5-2-2.667-3.5-3.5a3.943 3.943 0 0 0 1-2c-1.468-3.779-3.301-7.279-5.5-10.5-.684-1.284-.517-2.451.5-3.5a108.196 108.196 0 0 1-9-15c-1.494-2.639-2.161-5.472-2-8.5-2.748.098-3.414-.902-2-3 1.968 1.319 3.968 1.319 6 0 1.299.59 2.132 1.59 2.5 3a9.454 9.454 0 0 1 1.5-2.5l7-1c1.333-1 1.333-2 0-3a10.756 10.756 0 0 0 3-2.5 734.486 734.486 0 0 1 16 5.5c-1.238.69-1.238 1.19 0 1.5Z"/><path style="opacity:1" fill="#8bd0f3" d="M345.5 344.5a21.176 21.176 0 0 1 8 4 3.647 3.647 0 0 0 1.5-1c.875 2.715 2.708 4.048 5.5 4a8.43 8.43 0 0 0 .5 4 21.71 21.71 0 0 1 4 7 60.245 60.245 0 0 0 2.5 11.5 123.577 123.577 0 0 0-2 14.5 30.048 30.048 0 0 0-10 3c-1.544-.29-2.877-.956-4-2-1.316 2.528-2.483 2.528-3.5 0-2.321.861-3.487-.139-3.5-3-4.217.285-6.383-1.715-6.5-6-2.737-1.487-4.403-3.821-5-7a108.877 108.877 0 0 1-1.5-13.5c.291-4.735 1.291-9.235 3-13.5a79.559 79.559 0 0 0 11-2Z"/><path style="opacity:.063" fill="#050000" d="M61.5 391.5c-1.395 1.315-2.395.981-3-1 1.395-1.315 2.395-.981 3 1Z"/><path style="opacity:.081" fill="#24443d" d="M765.5 416.5c.241 2.398-.426 4.398-2 6v-3c.432-1.21 1.099-2.21 2-3Z"/><path style="opacity:.012" d="M761.5 422.5h2c-.321 1.548-1.321 2.215-3 2l1-2Z"/><path style="opacity:1" fill="#74c3ef" d="M702.5 362.5c-.542 6.561-.542 13.228 0 20a13.049 13.049 0 0 0-3 4c1.166 3.392-.167 5.559-4 6.5l1 1c-2.652 2.316-4.485 5.149-5.5 8.5-4.407 1.405-7.574 4.239-9.5 8.5a351.735 351.735 0 0 1-13 5.5c.15 3.661-1.35 4.661-4.5 3a32.065 32.065 0 0 0-2.5 4 11.25 11.25 0 0 0-3.5-1 82.46 82.46 0 0 1-7.5 5c-1.57-.194-3.07-.194-4.5 0a732.135 732.135 0 0 1-8.5 5c-1.529-.029-2.696-.696-3.5-2a6.802 6.802 0 0 1-1.5 3 45.054 45.054 0 0 0-8 5l-2-1a35.296 35.296 0 0 0-9 5 11.456 11.456 0 0 0-2.5-1c-4.39 2.945-9.223 4.279-14.5 4v3c-3.482-.373-6.482.627-9 3-2.21-1.482-3.876-.982-5 1.5-4.899.558-9.565 1.725-14 3.5v3a29.13 29.13 0 0 0-9-.5c-.862 2.734-1.695 2.901-2.5.5-3.861 4.313-8.194 4.98-13 2-.356 3.229-2.19 4.729-5.5 4.5l-3 3c-8.877 1.57-17.211 4.403-25 8.5-1.916-.748-3.916-.748-6 0 .278 1.846-.389 3.18-2 4-3.397-.911-6.563-.911-9.5 0a17.808 17.808 0 0 1-3.5 5 9.258 9.258 0 0 0-2.5-2 13.487 13.487 0 0 1-4 2c-2.363-.651-4.863-.651-7.5 0 .669 4.176-.831 5.509-4.5 4-1.676.561-3.009 1.561-4 3a3.647 3.647 0 0 0-1.5-1c-3.428 1.725-7.095 2.892-11 3.5a44.04 44.04 0 0 0-10 6.5 3.647 3.647 0 0 1-1.5-1 51.385 51.385 0 0 0-17.5 8.5 86.014 86.014 0 0 0-12 3.5c-2.395-1.023-3.395-.023-3 3-1.624-.14-2.79.527-3.5 2-2.147-.976-4.314-.809-6.5.5a25.893 25.893 0 0 0-5.5 6.5c-5.487-1.502-9.987-.002-13.5 4.5l-7 1c-1.837 1.952-4.171 2.952-7 3-.879 3.192-2.712 4.026-5.5 2.5-3.763 3.958-8.429 6.291-14 7-8.507 5.716-17.674 9.716-27.5 12 .395 3.023-.605 4.023-3 3-3.746 1.955-7.746 3.288-12 4-.934 3.465-2.434 3.798-4.5 1a6.547 6.547 0 0 1-3 3c-2.827-1.499-4.66-.665-5.5 2.5a7.297 7.297 0 0 0 2 3.5c-.333 1-1 1.667-2 2l-1.5-6a4.933 4.933 0 0 0-2.5-1c-5.23 1.833-10.396 3.166-15.5 4-1.581-2.347-2.914-2.347-4 0l-1-1c-3.633.996-7.299 1.996-11 3-4.18-1.303-8.347-1.303-12.5 0-2.191-1.853-4.525-2.187-7-1a358.079 358.079 0 0 0-15-5v-3c-3.884.442-5.884-1.225-6-5a18.453 18.453 0 0 1 .5-6c2.167-.833 3.667-2.333 4.5-4.5 1.791-.415 3.124-1.415 4-3a32.462 32.462 0 0 1 8-.5v-3c2.439-.553 4.773-.553 7 0a6.802 6.802 0 0 0 1.5-3l1 1a151.332 151.332 0 0 1 18-6 3.943 3.943 0 0 1 2 1 9.454 9.454 0 0 1 1.5-2.5c3.482-.489 6.649-1.655 9.5-3.5l2 2c1-1.333 2-1.333 3 0a6.802 6.802 0 0 1 1.5-3c2.233-.364 4.066-1.364 5.5-3a7.248 7.248 0 0 0 2.5 2 80.45 80.45 0 0 0 14-6 20.2 20.2 0 0 1 1.5 6 28.043 28.043 0 0 1 1.5-5c2.315-.734 4.148-2.068 5.5-4 1.049 1.017 2.216 1.184 3.5.5a16.635 16.635 0 0 0 6-5c5.182-.624 9.849-2.457 14-5.5a4.457 4.457 0 0 0-2-1.5c5.648.559 10.481-1.275 14.5-5.5l1 1c3.34-1.115 6.007-3.115 8-6l1 1c1.171-1.393 2.671-2.227 4.5-2.5.837-1.011 1.17-2.178 1-3.5 4.184.33 7.518-1.17 10-4.5a4.934 4.934 0 0 1 3-.5c.326-2.161 1.326-3.994 3-5.5a48.364 48.364 0 0 1 9-2.5c.795-3.623 3.128-5.79 7-6.5 1.342-2.892 3.675-4.225 7-4 1.993-4.994 5.659-7.494 11-7.5.222-3.185 1.722-4.185 4.5-3a4.934 4.934 0 0 0 .5-3h4c-.12-2.705.88-3.372 3-2a26.585 26.585 0 0 0 2-3.5 46.447 46.447 0 0 0 9.5-6.5 3.943 3.943 0 0 0 2 1 26.433 26.433 0 0 1 6.5-3c.886-.825 1.219-1.825 1-3a38.286 38.286 0 0 0 13-4c2.829.131 4.162-.869 4-3 2.351 1.213 4.184.547 5.5-2 2.381.935 4.881 1.268 7.5 1a4.934 4.934 0 0 1 .5-3l1 1c1.667-2.667 3.333-2.667 5 0l1-3c.745 1.49 1.912 2.49 3.5 3a91.604 91.604 0 0 1 6-5.5c3.287-.06 6.62.107 10 .5v-3a83.916 83.916 0 0 0 22.5-4c2.098 1.378 3.932 1.044 5.5-1a91.504 91.504 0 0 0 24-9c2.298 2.611 3.965 2.111 5-1.5 5.523-1.098 10.523-3.265 15-6.5 1.835-.928 2.168-2.094 1-3.5 3.342.544 6.675.377 10-.5a12.403 12.403 0 0 1 2.5-4c.414.457.914.791 1.5 1 1.393-1.363 3.059-2.196 5-2.5 1.694-3.078 4.361-4.578 8-4.5v-4a9.108 9.108 0 0 0 5-1c1.211-.774 1.211-1.607 0-2.5.825-1.688 1.825-1.855 3-.5a15.69 15.69 0 0 0 2-4 161.63 161.63 0 0 0 20-14c1.667-4.333 4.667-7.333 9-9a3.647 3.647 0 0 0-1-1.5c2.098.984 4.098.651 6-1 1.649-2.495 3.983-3.995 7-4.5.886-.825 1.219-1.825 1-3 3.479.278 6.812-.888 10-3.5 2.243.319 4.41.152 6.5-.5a134.072 134.072 0 0 1 16.5 4.5c3.057 2.95 6.057 5.617 9 8-.684 1.827-.017 3.327 2 4.5.6 4.04 1.933 7.707 4 11Z"/><path style="opacity:.052" fill="#070000" d="M745.5 439.5c0 1.333-.667 2-2 2 0-1.333.667-2 2-2Z"/><path style="opacity:.072" fill="#010000" d="M729.5 447.5c-1 1.333-2 1.333-3 0 .848-1.125 1.848-1.125 3 0Z"/><path style="opacity:.021" fill="#050000" d="M681.5 467.5c-.787 1.604-2.12 2.271-4 2 1.014-1.174 2.347-1.84 4-2Z"/><path style="opacity:.016" d="M667.5 472.5c.073 1.527-.594 2.527-2 3-.215-1.679.452-2.679 2-3Z"/><path style="opacity:.107" fill="#030000" d="M95.5 477.5c.854 1.535.854 2.868 0 4-1.186-1.461-1.186-2.795 0-4Z"/><path style="opacity:.026" d="M640.5 484.5c-.672.767-1.505 1.434-2.5 2-.399-.228-.565-.562-.5-1 .709-.904 1.709-1.237 3-1Z"/><path style="opacity:.045" fill="#160e19" d="M602.5 497.5c1.16 1.703.493 2.369-2 2 .333-1 1-1.667 2-2Z"/><path style="opacity:.077" d="M589.5 503.5c-1.171.845-2.505 1.511-4 2 .683-1.676 2.017-2.343 4-2Z"/><path style="opacity:.064" fill="#0c0100" d="M578.5 508.5c-1.208.734-2.541 1.067-4 1 1.205-1.638 2.538-1.971 4-1Z"/><path style="opacity:.173" fill="#1c2a34" d="M571.5 510.5c-1.782 1.22-3.782 1.886-6 2-.086-.996.248-1.829 1-2.5 1.887-.78 3.554-.613 5 .5Z"/><path style="opacity:1" fill="#4caee3" d="M91.5 384.5c4.905 7.611 7.905 15.777 9 24.5a1991.69 1991.69 0 0 0 23.5 55.5c3.341 3.994 5.175 8.661 5.5 14h3a18.453 18.453 0 0 0 .5 6 125.723 125.723 0 0 1 5.5 14 4.933 4.933 0 0 1-1 2.5c3.103.602 5.103 2.435 6 5.5-1.02 1.932-1.187 3.932-.5 6a36.666 36.666 0 0 0 9.5 13 11.456 11.456 0 0 0-1 2.5 161.972 161.972 0 0 0 11 24.5 130.406 130.406 0 0 1 1.5 7 12.472 12.472 0 0 1 4 5c2.418 4.638 4.085 9.638 5 15a88.943 88.943 0 0 0 12.5 16c1.048 3.485 3.048 6.152 6 8 2.056 3.058 4.723 5.391 8 7 4.994-.002 9.994-.002 15 0a57.776 57.776 0 0 1 15-5.5c3.901-.106 7.568-.939 11-2.5a4.933 4.933 0 0 1 2.5 1 9.454 9.454 0 0 1 1.5-2.5c2.176-.163 4.009-.996 5.5-2.5l2 2c3.717-3.368 7.884-4.868 12.5-4.5a188.843 188.843 0 0 0 16-6.5c1.054.18 2.054.513 3 1a657.024 657.024 0 0 1 34-12.5 562.17 562.17 0 0 0 17-8.5c3.694.662 7.027-.338 10-3l2 1c11.587-5.911 23.587-10.411 36-13.5 2.909-3.034 6.243-3.867 10-2.5v-3c2.772 1.934 4.605 1.267 5.5-2 .414.457.914.791 1.5 1a45.364 45.364 0 0 0 11-6.5c1.399-.595 2.732-.428 4 .5a10.502 10.502 0 0 1 5-3.5 947.404 947.404 0 0 0 22-5.5c-.219-1.175.114-2.175 1-3 3.22-.553 6.053-1.887 8.5-4 .414.457.914.791 1.5 1a38.335 38.335 0 0 0 11.5-6c.414.457.914.791 1.5 1a93.485 93.485 0 0 1 11-6.5c3.361-.337 6.694-.837 10-1.5l5-4a54.49 54.49 0 0 0 4.5 1 16.816 16.816 0 0 1 6.5-2c-.17-1.322.163-2.489 1-3.5a61.395 61.395 0 0 1 13-3c4.015-4.525 9.015-7.025 15-7.5.622 1.835 1.956 3.002 4 3.5 3.349.388 6.683.221 10-.5-.188-1.603.312-2.937 1.5-4 2 1.333 4 1.333 6 0l-1 5c2-.667 3.333-2 4-4a4.457 4.457 0 0 0 1.5 2c1.109-1.09 2.109-1.09 3 0 1.333 1 1.333 2 0 3-2.135 1.145-4.301 1.145-6.5 0-1.169.509-2.002 1.342-2.5 2.5 3.772 1.83 3.439 3.33-1 4.5-.928 1.268-1.095 2.601-.5 4 1.57.17 3.403.503 5.5 1a4.934 4.934 0 0 1 .5-3c2.736 1.529 2.902 3.029.5 4.5.556.383.889.883 1 1.5-1.69.356-2.69 1.356-3 3-.829.832-1.662.499-2.5-1-2 1.333-3.667 3-5 5-.71-1.473-1.876-2.14-3.5-2 .219 1.175-.114 2.175-1 3-3.247 1.26-6.913 2.26-11 3-1.101-1.098-2.434-1.265-4-.5-1.711 1.776-3.711 2.942-6 3.5-2.427 4.043-6.094 5.709-11 5-1.88-.271-3.213.396-4 2-2.997.562-5.664 1.895-8 4a7.248 7.248 0 0 1-2.5-2c-.708.881-1.542 1.547-2.5 2-1.495.489-2.829 1.155-4 2a161.904 161.904 0 0 0-15 8c-1.268-.928-2.601-1.095-4-.5a175.59 175.59 0 0 1-16 7.5c-.06-.543-.393-.876-1-1a46.745 46.745 0 0 1-8 1.5c.566.995 1.233 1.828 2 2.5-1.677 1.998-3.677 2.331-6 1a260.361 260.361 0 0 1-8 4c-1.527-.073-2.527.594-3 2h-2c-.96-1.015-2.127-1.015-3.5 0-1.364.871-2.53 1.871-3.5 3-2.401 1.039-4.735 2.373-7 4a5.576 5.576 0 0 0-3-1 5.727 5.727 0 0 1-3 1h-2c-1.21.432-2.21 1.099-3 2-.321 1.548-1.321 2.215-3 2-1.915-.284-3.581.049-5 1-.483 2.37-1.649 3.037-3.5 2-2.468.604-4.468 1.938-6 4-1.395-1.315-2.395-.981-3 1l-1-1c-7.329 4.003-14.995 6.336-23 7a103.886 103.886 0 0 1-21.5 9c-3.348.211-6.348 1.211-9 3-.961.717-1.961 1.883-3 3.5a52.745 52.745 0 0 1-7 0c1.493 1.156 1.326 1.99-.5 2.5a11.456 11.456 0 0 1-2.5-1c-1.303 2.879-3.303 3.545-6 2-3.44 2.868-7.44 4.535-12 5-1.434.73-2.6 1.73-3.5 3-.278-.916-.778-1.582-1.5-2-1.333 0-2 .667-2 2a148.188 148.188 0 0 1-27 8c-2.634 3.188-5.467 3.855-8.5 2a14.705 14.705 0 0 0-5 4l-3-1c-3.476 2.776-7.309 3.776-11.5 3a44.883 44.883 0 0 1-16 5c-2.652-.09-4.985.576-7 2-1.384 1.301-2.884 1.301-4.5 0-1.188 1.063-1.688 2.397-1.5 4-4.998-.292-9.831.041-14.5 1-.945-.405-1.612-1.072-2-2-1.46 1.922-3.127 2.589-5 2-1.786-1.599-3.953-2.433-6.5-2.5l-7-7-4-1 1-1-4.5-3.5a51.035 51.035 0 0 1-7-10 185.931 185.931 0 0 1-10-24c-3.184-.906-4.017-2.739-2.5-5.5a9.454 9.454 0 0 1-2.5-1.5 15.256 15.256 0 0 0-1.5-4.5c1.109-1.813.442-2.646-2-2.5-.638-1.96-.638-3.793 0-5.5a49563.07 49563.07 0 0 1-9-15 27.364 27.364 0 0 0-4-9c.698-.971.698-2.137 0-3.5a181.154 181.154 0 0 1-9-18.5 3.943 3.943 0 0 1 1-2c-1.5-.833-2.667-2-3.5-3.5a151.143 151.143 0 0 1-9-24 16.298 16.298 0 0 0-4.5-6.5c2.491-.626 2.491-1.459 0-2.5l1-2a65.222 65.222 0 0 1-6-10c.854-1.132.854-2.465 0-4-4.797-4.995-7.63-10.995-8.5-18-6.218-13.628-12.385-26.295-18.5-38l1-2c-3.097-2.028-3.43-4.195-1-6.5-4.152-1.23-5.152-3.73-3-7.5a178.835 178.835 0 0 0-.5-7l2 2c1.333-2.667 3.333-4.667 6-6 2.105-2.511 1.938-4.844-.5-7 1.822-3.602 2.822-3.602 3 0a40.911 40.911 0 0 0 9-.5 22.737 22.737 0 0 0 2-5c-2.481-3.547-1.481-5.714 3-6.5-.285 3.329.382 6.329 2 9Z"/><path style="opacity:.06" fill="#151a11" d="M557.5 514.5c.992-.172 1.658.162 2 1a16.339 16.339 0 0 1-5 2c.31-1.644 1.31-2.644 3-3Z"/><path style="opacity:.188" fill="#2e4550" d="M531.5 525.5c-2.691 2.411-5.524 4.078-8.5 5-.278-.916-.778-1.582-1.5-2 2.289-.558 4.289-1.724 6-3.5 1.566-.765 2.899-.598 4 .5Z"/><path style="opacity:.061" d="M510.5 533.5c-.787 1.604-2.12 2.271-4 2 .787-1.604 2.12-2.271 4-2Z"/><path style="opacity:.046" d="M493.5 539.5c.111.617.444 1.117 1 1.5a12.93 12.93 0 0 1-5 .5c1.171-.845 2.505-1.511 4-2Z"/><path style="opacity:.107" fill="#1d2223" d="M454.5 556.5c-2.28 1.999-4.614 2.999-7 3-.767-.672-1.434-1.505-2-2.5 2.724-.27 5.391-.77 8-1.5.607.124.94.457 1 1Z"/><path style="opacity:.043" d="M433.5 564.5c-.473 1.406-1.473 2.073-3 2 .473-1.406 1.473-2.073 3-2Z"/><path style="opacity:.041" fill="#0a0c10" d="M428.5 566.5c-.722.418-1.222 1.084-1.5 2l-1-1c-1.049 1.607-2.549 2.273-4.5 2 .97-1.129 2.136-2.129 3.5-3 1.373-1.015 2.54-1.015 3.5 0Z"/><path style="opacity:.037" d="M411.5 572.5c-.553 2.052-1.553 2.385-3 1a5.727 5.727 0 0 0 3-1Z"/><path style="opacity:.055" d="M406.5 573.5a4.934 4.934 0 0 1-.5 3c-.671-.752-1.504-1.086-2.5-1 .79-.901 1.79-1.568 3-2Z"/><path style="opacity:.032" d="M395.5 578.5c1.419-.951 3.085-1.284 5-1-1.356 2.038-3.023 2.372-5 1Z"/><path style="opacity:1" fill="#83ccf2" d="M722.5 360.5c3.97 7.897 6.304 16.397 7 25.5.061 1.711-.606 3.044-2 4 .928.388 1.595 1.055 2 2a324.332 324.332 0 0 1-4 17.5 14.506 14.506 0 0 0-4 5c-.825.886-1.825 1.219-3 1v3h-3v3a5815.62 5815.62 0 0 0-12 4v3a24.935 24.935 0 0 0-7 .5 156.537 156.537 0 0 1-13.5 7.5c-1.049-1.017-2.216-1.184-3.5-.5-.776 2.987-2.443 3.82-5 2.5a32.444 32.444 0 0 1-6 1.5c-7.396 5.743-15.73 9.243-25 10.5v4a6.846 6.846 0 0 1-4-1 55.723 55.723 0 0 1-14 4.5 250.447 250.447 0 0 0-38.5 17.5c-1.543-.785-3.21-.785-5 0a855.634 855.634 0 0 0-22.5 9c-.789 1.988-1.955 2.321-3.5 1a213.166 213.166 0 0 1-24.5 9c-5.985.475-10.985 2.975-15 7.5a61.395 61.395 0 0 0-13 3c-.837 1.011-1.17 2.178-1 3.5a16.816 16.816 0 0 0-6.5 2 54.49 54.49 0 0 1-4.5-1l-5 4a103.172 103.172 0 0 1-10 1.5 93.485 93.485 0 0 0-11 6.5 3.647 3.647 0 0 1-1.5-1 38.335 38.335 0 0 1-11.5 6 3.647 3.647 0 0 1-1.5-1c-2.447 2.113-5.28 3.447-8.5 4-.886.825-1.219 1.825-1 3a947.404 947.404 0 0 1-22 5.5 10.502 10.502 0 0 0-5 3.5c-1.268-.928-2.601-1.095-4-.5a45.364 45.364 0 0 1-11 6.5 3.647 3.647 0 0 1-1.5-1c-.895 3.267-2.728 3.934-5.5 2v3c-3.757-1.367-7.091-.534-10 2.5-12.413 3.089-24.413 7.589-36 13.5l-2-1c-2.973 2.662-6.306 3.662-10 3a562.17 562.17 0 0 1-17 8.5 657.024 657.024 0 0 0-34 12.5 10.305 10.305 0 0 0-3-1 188.843 188.843 0 0 1-16 6.5c-4.616-.368-8.783 1.132-12.5 4.5l-2-2c-1.491 1.504-3.324 2.337-5.5 2.5a9.454 9.454 0 0 0-1.5 2.5 4.933 4.933 0 0 0-2.5-1c-3.432 1.561-7.099 2.394-11 2.5a57.776 57.776 0 0 0-15 5.5c-5.006-.002-10.006-.002-15 0-3.277-1.609-5.944-3.942-8-7-.638-1.96-.638-3.793 0-5.5a15.855 15.855 0 0 1-6-5.5l4.5-3c.945.405 1.612 1.072 2 2 1.085-2.157 2.251-2.324 3.5-.5-1.456.423-1.956 1.256-1.5 2.5 2.613 3.019 5.779 3.686 9.5 2-1.566.561-2.899-.106-4-2 1.276-1.145 2.609-1.145 4 0a23.65 23.65 0 0 1 3-3.5 445.324 445.324 0 0 1-11-2.5c-1.731-2.739-2.897-2.406-3.5 1-1.251-3.88-.085-5.213 3.5-4 2.535-2.542 2.535-5.042 0-7.5a2187.73 2187.73 0 0 0 4-5c-2.584-2.896-2.251-5.563 1-8a10.91 10.91 0 0 1-5-4.5 6.802 6.802 0 0 1 3-1.5 26.67 26.67 0 0 1-6.5-1.5c-.519 1.016-1.353 1.682-2.5 2-5.16-2.087-5.16-4.42 0-7 2.921 1.941 5.921 2.608 9 2 .155 3.667 1.488 7.167 4 10.5l-1 1 5 2.5a6.802 6.802 0 0 0 1.5-3c1 1.333 2 1.333 3 0a14.84 14.84 0 0 0 3.5 4 19.372 19.372 0 0 1 8-1 358.079 358.079 0 0 1 15 5c2.475-1.187 4.809-.853 7 1 4.153-1.303 8.32-1.303 12.5 0 3.701-1.004 7.367-2.004 11-3l1 1c1.086-2.347 2.419-2.347 4 0 5.104-.834 10.27-2.167 15.5-4a4.933 4.933 0 0 1 2.5 1l1.5 6c1-.333 1.667-1 2-2a7.297 7.297 0 0 1-2-3.5c.84-3.165 2.673-3.999 5.5-2.5a6.547 6.547 0 0 0 3-3c2.066 2.798 3.566 2.465 4.5-1 4.254-.712 8.254-2.045 12-4 2.395 1.023 3.395.023 3-3 9.826-2.284 18.993-6.284 27.5-12 5.571-.709 10.237-3.042 14-7 2.788 1.526 4.621.692 5.5-2.5 2.829-.048 5.163-1.048 7-3l7-1c3.513-4.502 8.013-6.002 13.5-4.5a25.893 25.893 0 0 1 5.5-6.5c2.186-1.309 4.353-1.476 6.5-.5.71-1.473 1.876-2.14 3.5-2-.395-3.023.605-4.023 3-3a86.014 86.014 0 0 1 12-3.5 51.385 51.385 0 0 1 17.5-8.5c.414.457.914.791 1.5 1a44.04 44.04 0 0 1 10-6.5c3.905-.608 7.572-1.775 11-3.5a3.647 3.647 0 0 1 1.5 1c.991-1.439 2.324-2.439 4-3 3.669 1.509 5.169.176 4.5-4 2.637-.651 5.137-.651 7.5 0a13.487 13.487 0 0 0 4-2 9.258 9.258 0 0 1 2.5 2 17.808 17.808 0 0 0 3.5-5c2.937-.911 6.103-.911 9.5 0 1.611-.82 2.278-2.154 2-4 2.084-.748 4.084-.748 6 0 7.789-4.097 16.123-6.93 25-8.5l3-3c3.31.229 5.144-1.271 5.5-4.5 4.806 2.98 9.139 2.313 13-2 .805 2.401 1.638 2.234 2.5-.5a29.13 29.13 0 0 1 9 .5v-3c4.435-1.775 9.101-2.942 14-3.5 1.124-2.482 2.79-2.982 5-1.5 2.518-2.373 5.518-3.373 9-3v-3c5.277.279 10.11-1.055 14.5-4 .873.235 1.707.569 2.5 1a35.296 35.296 0 0 1 9-5l2 1a45.054 45.054 0 0 1 8-5 6.802 6.802 0 0 0 1.5-3c.804 1.304 1.971 1.971 3.5 2a732.135 732.135 0 0 0 8.5-5c1.43-.194 2.93-.194 4.5 0a82.46 82.46 0 0 0 7.5-5 11.25 11.25 0 0 1 3.5 1 32.065 32.065 0 0 1 2.5-4c3.15 1.661 4.65.661 4.5-3a351.735 351.735 0 0 0 13-5.5c1.926-4.261 5.093-7.095 9.5-8.5 1.015-3.351 2.848-6.184 5.5-8.5l-1-1c3.833-.941 5.166-3.108 4-6.5a13.049 13.049 0 0 1 3-4c-.542-6.772-.542-13.439 0-20a18.473 18.473 0 0 1 3.5 2 14.828 14.828 0 0 1 6.5-2c-.262 1.478.071 2.811 1 4 2.542-2.765 5.542-4.765 9-6Z"/><path style="opacity:.113" fill="#172228" d="M337.5 600.5c-1.619 1.961-3.786 3.294-6.5 4-.671-.752-1.504-1.086-2.5-1 2.652-1.789 5.652-2.789 9-3Z"/><path style="opacity:.037" d="M292.5 616.5c0 1.333-.667 2-2 2 0-1.333.667-2 2-2Z"/><path style="opacity:.169" fill="#11161b" d="M219.5 639.5c-1.938 1.663-4.272 2.329-7 2 2.015-1.424 4.348-2.09 7-2Z"/></svg>