
<svg xmlns="http://www.w3.org/2000/svg" version="1.1" width="500px" height="500px" style="shape-rendering:geometricPrecision; text-rendering:geometricPrecision; image-rendering:optimizeQuality; fill-rule:evenodd; clip-rule:evenodd" xmlnsXlink="http://www.w3.org/1999/xlink">
<path style="opacity:0.995" fill="#dd6453" d="M 227.5,24.5 C 314.31,19.3389 383.476,51.3389 435,120.5C 479.531,189.286 486.864,261.953 457,338.5C 428.025,402.137 380.192,444.637 313.5,466C 235.918,486.352 165.918,471.686 103.5,422C 45.7242,370.236 19.5576,305.403 25,227.5C 34.7536,148.146 74.2536,88.9798 143.5,50C 170.052,36.3127 198.052,27.8127 227.5,24.5 Z"/>
<path style="opacity:1" fill="#f7e1c1" d="M 243.5,69.5 C 251.663,68.164 257.497,71.164 261,78.5C 261.333,107.833 261.667,137.167 262,166.5C 262.576,169.124 263.91,169.791 266,168.5C 267.044,166.285 267.71,163.952 268,161.5C 270.142,137.844 272.142,114.177 274,90.5C 278.642,82.1876 285.142,80.3543 293.5,85C 295.923,87.5125 297.256,90.5125 297.5,94C 294.947,119.979 292.614,145.979 290.5,172C 290.53,174.424 290.863,176.757 291.5,179C 293.409,179.448 294.576,178.615 295,176.5C 298.278,159.218 301.278,141.885 304,124.5C 304.973,113.767 310.473,110.267 320.5,114C 321.667,115.167 322.833,116.333 324,117.5C 323.555,125.851 322.555,134.185 321,142.5C 312.344,185.438 304.01,228.438 296,271.5C 293.058,281.443 286.558,287.609 276.5,290C 259.167,290.667 241.833,290.667 224.5,290C 219.071,288.198 214.571,285.031 211,280.5C 191.569,248.072 172.569,215.406 154,182.5C 153.612,168.091 160.446,162.924 174.5,167C 182.54,177.572 189.706,188.739 196,200.5C 198.552,204.322 201.552,204.988 205,202.5C 203.539,164.786 201.039,127.119 197.5,89.5C 199.399,79.4566 205.399,75.6233 215.5,78C 219.058,79.8917 221.558,82.7251 223,86.5C 225.068,112.858 227.402,139.192 230,165.5C 231.506,168.474 233.172,168.807 235,166.5C 235.333,137.167 235.667,107.833 236,78.5C 237.642,74.6997 240.142,71.6997 243.5,69.5 Z"/>
<path style="opacity:1" fill="#fefbfb" d="M 158.5,319.5 C 164.176,319.334 169.843,319.501 175.5,320C 177.762,320.642 179.929,321.475 182,322.5C 181.79,327.008 180.79,331.341 179,335.5C 171.908,331.597 164.908,331.597 158,335.5C 156.622,339.898 157.788,343.398 161.5,346C 169.902,348.77 176.735,353.603 182,360.5C 188.811,374.351 185.644,385.185 172.5,393C 161.901,396.469 151.401,396.303 141,392.5C 140.733,387.665 141.567,382.998 143.5,378.5C 151.21,383.124 159.21,383.624 167.5,380C 170.458,375.448 169.791,371.448 165.5,368C 158.578,365.294 152.411,361.46 147,356.5C 136.373,339.444 140.206,327.111 158.5,319.5 Z"/>
<path style="opacity:1" fill="#fefcfc" d="M 272.5,319.5 C 293.028,316.675 305.528,325.342 310,345.5C 311.276,356.727 310.276,367.727 307,378.5C 299.455,392.809 287.622,398.309 271.5,395C 260.497,391.329 253.663,383.829 251,372.5C 248.751,361.412 249.084,350.412 252,339.5C 256.106,329.893 262.939,323.226 272.5,319.5 Z"/>
<path style="opacity:1" fill="#f6d8d4" d="M 194.5,321.5 C 210.658,320.504 226.991,320.17 243.5,320.5C 243.5,325.5 243.5,330.5 243.5,335.5C 237.833,335.5 232.167,335.5 226.5,335.5C 231.64,334.512 236.974,334.179 242.5,334.5C 242.5,330.167 242.5,325.833 242.5,321.5C 226.5,321.5 210.5,321.5 194.5,321.5 Z"/>
<path style="opacity:1" fill="#fefdfd" d="M 194.5,321.5 C 210.5,321.5 226.5,321.5 242.5,321.5C 242.5,325.833 242.5,330.167 242.5,334.5C 236.974,334.179 231.64,334.512 226.5,335.5C 226.5,355.167 226.5,374.833 226.5,394.5C 221.167,394.5 215.833,394.5 210.5,394.5C 210.5,374.833 210.5,355.167 210.5,335.5C 205.167,335.5 199.833,335.5 194.5,335.5C 194.5,330.833 194.5,326.167 194.5,321.5 Z"/>
<path style="opacity:1" fill="#fefcfc" d="M 326.5,321.5 C 337.245,321.071 347.912,321.571 358.5,323C 369.566,328.811 373.732,337.978 371,350.5C 368.928,357.573 364.428,362.406 357.5,365C 351.985,366.89 346.319,367.724 340.5,367.5C 340.5,376.5 340.5,385.5 340.5,394.5C 335.167,394.5 329.833,394.5 324.5,394.5C 323.858,369.938 324.525,345.605 326.5,321.5 Z"/>
<path style="opacity:1" fill="#dd6655" d="M 276.5,332.5 C 281.74,331.538 285.907,333.205 289,337.5C 294.653,349.979 294.987,362.645 290,375.5C 285.108,383.484 279.108,384.484 272,378.5C 265.964,366.634 264.964,354.301 269,341.5C 270.642,337.7 273.142,334.7 276.5,332.5 Z"/>
<path style="opacity:1" fill="#dd6655" d="M 340.5,334.5 C 353.78,332.77 358.114,338.103 353.5,350.5C 349.835,353.832 345.502,355.165 340.5,354.5C 340.5,347.833 340.5,341.167 340.5,334.5 Z"/>
</svg>
